<svg width="64" height="64" viewBox="0 0 64 64" fill="none" xmlns="http://www.w3.org/2000/svg">
<path d="M15.4999 5.12501C12.7999 5.35001 9.8499 6.31251 9.4499 7.11251C9.1999 7.57501 9.1999 7.67501 9.4499 8.18751C9.6749 8.66251 10.2124 8.93751 10.7124 8.83751C10.9124 8.80001 11.5374 8.60001 12.1249 8.40001C13.9124 7.76251 15.1624 7.58751 17.3749 7.66251C19.7874 7.73751 21.1999 8.07501 23.1999 9.05001C24.5249 9.70001 26.3749 10.9375 26.3749 11.175C26.3749 11.2375 25.6874 13.825 24.8624 16.9125C23.2249 22.975 23.2124 23.025 23.8874 23.525C24.1249 23.7 24.9499 23.875 27.0624 24.2C28.6374 24.4375 29.9499 24.65 29.9624 24.675C29.9874 24.6875 28.4624 27.625 26.5999 31.2C23.0749 37.9375 22.9249 38.275 23.3749 38.825C23.4749 38.9375 24.9624 39.9625 26.6624 41.0875L29.7749 43.125L29.6999 43.6C29.6624 43.85 29.3124 46.5625 28.9374 49.625C28.5499 52.6875 28.2124 55.3125 28.1874 55.4625C28.1249 55.7375 28.1249 55.7375 27.4624 55.3625C23.2874 52.9 17.6124 48.1875 13.7624 43.975C7.0249 36.6 3.2249 29.5625 2.6124 23.3375C2.3624 20.9125 2.6999 18.525 3.5624 16.4125C3.9624 15.4125 3.9624 15.1 3.5124 14.6C3.2124 14.2625 3.0624 14.1875 2.6499 14.1875C1.9499 14.1875 1.5874 14.5625 1.1374 15.7375C-0.6626 20.4 -0.2626 25.7875 2.2999 31.625C5.9999 40.0375 14.5124 49.65 23.8999 56.0125C25.7999 57.3 28.1249 58.65 28.8374 58.8875C29.2999 59.0375 29.9499 58.8 30.2124 58.3875C30.4499 58.0125 32.3999 42.4625 32.2624 42.1C32.0999 41.6625 31.7874 41.4375 28.8874 39.55C27.4249 38.6 26.1999 37.75 26.1624 37.675C26.1374 37.6 27.6874 34.525 29.6249 30.825C33.4374 23.525 33.4499 23.4875 32.8124 22.8375C32.4624 22.5 32.4624 22.5 28.6874 21.925C27.4499 21.7375 26.3874 21.5375 26.3374 21.5C26.2749 21.45 26.8749 19.025 27.6624 16.1C28.5124 12.95 29.0749 10.675 29.0374 10.475C28.8999 9.76251 26.5749 7.91251 24.4999 6.87501C21.7624 5.50001 18.4999 4.86251 15.4999 5.12501Z" fill="white"/>
<path d="M45.5 5.12507C41.9125 5.46257 38.4 7.02507 35.75 9.43757C35.3 9.85007 34.7125 10.3626 34.4625 10.5626C33.9875 10.9376 33.9625 11.0001 33.1125 14.0001C32.65 15.6876 32.25 17.2626 32.25 17.5126C32.25 18.0376 32.6 18.5626 33.025 18.6626C33.1875 18.7001 34.5 18.9126 35.9375 19.1126C37.3875 19.3251 38.7375 19.5251 38.95 19.5626L39.35 19.6251L35.675 27.1876C33.65 31.3376 32 34.8626 32 35.0251C32 35.5751 32.45 36.0001 35.125 38.0126C36.6 39.1251 37.8375 40.0626 37.8625 40.0751C37.8875 40.1001 37 44.0501 35.8875 48.8501C33.675 58.4126 33.7125 58.1501 34.5125 58.5626C35.1125 58.8751 35.5125 58.7876 36.9375 57.9876C44.25 53.9501 53.025 45.7001 58.0625 38.1251C63.5375 29.8876 65.2 22.7376 63.1125 16.4376C61.8125 12.5126 58.4875 8.75007 54.5875 6.80007C52.0125 5.50007 48.4375 4.83757 45.5 5.12507ZM48.5 7.62507C50.8375 7.87507 53.2875 8.75007 55.1375 10.0126C56.9625 11.2501 58.95 13.4876 59.9625 15.4376C61.05 17.5626 61.4375 19.2751 61.425 21.9376C61.4125 24.6251 61 26.6501 59.85 29.5626C56.925 36.9751 49.8 45.6251 41.275 52.1001C39.7625 53.2501 37.125 55.0501 37.075 54.9751C37.05 54.9501 37.8125 51.5876 38.7625 47.5001C39.7125 43.4126 40.5 39.8751 40.5 39.6501C40.5 39.4251 40.4375 39.1251 40.375 38.9876C40.3 38.8626 39.05 37.8501 37.5875 36.7376C36.125 35.6376 34.925 34.6876 34.9 34.6376C34.8875 34.5876 36.575 31.0626 38.6375 26.8126C42.775 18.3251 42.75 18.3876 42.05 17.7626C41.7125 17.4626 41.4625 17.3876 39.625 17.1251C38.4875 16.9626 37 16.7501 36.3 16.6376L35.0375 16.4376L35.5875 14.4501L36.1375 12.4751L36.9 11.7626C39.2375 9.60007 41.65 8.32507 44.3875 7.82507C46.1875 7.50007 46.9125 7.46257 48.5 7.62507Z" fill="white"/>
<path d="M5.06262 9.92498C4.45012 10.5375 4.53762 11.3625 5.26262 11.85C5.80012 12.225 6.31262 12.15 6.78762 11.625C7.02512 11.3625 7.12512 11.1125 7.12512 10.8C7.12512 9.78748 5.77512 9.21248 5.06262 9.92498Z" fill="white"/>
</svg>
