<svg width="64" height="64" viewBox="0 0 64 64" fill="none" xmlns="http://www.w3.org/2000/svg">
<path d="M26.4495 1.93744C25.6995 2.22494 25.212 2.66244 24.187 3.93744C22.8745 5.59994 22.937 5.56244 20.7495 5.56244C18.9495 5.56244 18.9245 5.56244 18.0995 5.97494C16.7495 6.63744 16.2995 7.36244 15.862 9.53744C15.487 11.3624 15.3745 11.4999 13.637 12.3249C12.837 12.7124 12.037 13.1374 11.8495 13.2749C11.2995 13.6624 10.762 14.5499 10.5495 15.4124C10.337 16.2749 10.312 16.0874 10.9495 18.9374C11.187 19.9874 11.037 20.3749 9.98696 21.6249C8.82446 23.0124 8.44946 23.7999 8.44946 24.8749C8.44946 25.9374 8.82446 26.7499 9.92446 28.0624C10.387 28.6124 10.8245 29.1874 10.887 29.3499C11.0745 29.8374 11.012 30.6249 10.687 31.8124C10.3245 33.1249 10.2995 33.8499 10.587 34.7499C10.937 35.8499 11.6495 36.4999 13.462 37.3874C14.637 37.9624 15.0745 38.2374 15.2495 38.5374C15.787 39.4249 15.962 39.0249 11.487 47.2624C9.19946 51.4624 7.31196 55.0374 7.27446 55.1999C7.18696 55.6749 7.56196 56.1249 8.03696 56.1249C8.27446 56.1249 10.2245 55.3999 12.5995 54.4374C15.337 53.3374 16.7745 52.8124 16.812 52.9124C16.837 52.9999 17.237 55.0249 17.6995 57.4249C18.3245 60.6999 18.5995 61.8499 18.7745 62.0249C19.087 62.3374 19.6495 62.3124 19.962 61.9749C20.0995 61.8124 21.862 58.6374 23.887 54.9249L27.5495 48.1499L28.137 48.0874C28.4995 48.0374 29.287 47.7374 30.137 47.3249C31.962 46.4124 32.137 46.4124 33.9495 47.3249C34.762 47.7374 35.562 48.0499 35.887 48.0874L36.4495 48.1499L40.1245 54.9499C42.1495 58.6874 43.912 61.8624 44.037 61.9999C44.312 62.3124 44.9245 62.3249 45.2245 62.0249C45.3995 61.8499 45.6745 60.6999 46.2995 57.4249C46.762 55.0249 47.162 52.9999 47.187 52.9124C47.2245 52.8124 48.662 53.3374 51.3995 54.4374C53.687 55.3624 55.712 56.1249 55.912 56.1249C56.3245 56.1249 56.7495 55.7249 56.7495 55.3499C56.7495 55.1999 54.887 51.6499 52.6245 47.4749L48.487 39.8624L48.637 39.3374C48.837 38.5624 49.287 38.1749 50.812 37.4499C52.4245 36.6874 52.9995 36.2249 53.4245 35.3374C53.937 34.2749 53.9495 33.6624 53.4995 31.8249C53.112 30.2749 53.112 30.1999 53.2995 29.6999C53.412 29.4249 53.8995 28.7124 54.387 28.1249C55.5495 26.7374 55.787 26.1999 55.787 24.9999C55.7995 23.8374 55.5495 23.2874 54.412 21.9249C53.962 21.3749 53.5245 20.7874 53.4245 20.5999C53.1745 20.1249 53.212 19.4874 53.562 18.1249C54.087 16.0999 53.9245 14.9999 52.9245 13.8874C52.4495 13.3624 52.062 13.0999 50.7995 12.4999C48.9745 11.6249 48.8745 11.4999 48.562 9.83744C48.237 8.13744 47.9245 7.41244 47.2495 6.74994C46.362 5.84994 45.6245 5.62494 43.587 5.62494C42.2495 5.62494 41.8495 5.58744 41.5245 5.39994C41.2995 5.28744 40.712 4.64994 40.212 3.99994C38.8745 2.24994 37.8745 1.66244 36.3495 1.77494C35.812 1.81244 35.2995 1.98744 34.187 2.53744C32.2745 3.47494 32.112 3.47494 30.262 2.53744C28.937 1.86244 28.7745 1.81244 27.887 1.78744C27.287 1.76244 26.762 1.82494 26.4495 1.93744ZM29.7245 4.21244C31.012 4.86244 31.262 4.93744 32.087 4.97494C32.9995 5.02494 33.0245 5.02494 34.6245 4.24994C36.062 3.56244 36.3245 3.47494 36.812 3.52494C37.537 3.61244 37.8995 3.86244 38.537 4.71244C39.387 5.84994 40.137 6.62494 40.7495 6.97494C41.2745 7.28744 41.4245 7.31244 43.3245 7.37494C45.287 7.43744 45.337 7.44994 45.787 7.78744C46.3995 8.24994 46.437 8.36244 46.7995 10.0249C46.962 10.8249 47.212 11.6874 47.362 11.9624C47.762 12.7624 48.712 13.5249 49.962 14.0499C51.1995 14.5749 51.487 14.7749 51.862 15.3874C52.1995 15.9374 52.187 16.4749 51.812 17.8999C51.2245 20.0999 51.4745 21.2249 52.937 22.8749C53.6995 23.7374 54.1245 24.4874 54.1245 24.9999C54.1245 25.5124 53.6995 26.2624 52.887 27.1874C51.3745 28.8999 51.1745 29.8374 51.812 32.2499C52.387 34.4874 52.212 34.8249 49.7995 35.9999C47.537 37.1124 47.237 37.5124 46.6245 40.2874C46.312 41.6999 46.0245 42.1249 45.187 42.4499C44.737 42.6124 44.412 42.6374 43.512 42.5749C42.087 42.4624 41.0495 42.6499 40.2745 43.1749C39.9495 43.3874 39.287 44.0999 38.7745 44.7499C37.287 46.6749 36.8245 46.7749 34.5495 45.6499C33.1245 44.9624 33.037 44.9374 32.062 44.9374C31.087 44.9374 31.012 44.9624 29.537 45.6749C28.1745 46.3374 27.962 46.3999 27.437 46.3499C26.662 46.2624 26.362 46.0124 25.3245 44.6749C23.8245 42.7499 23.337 42.5124 20.837 42.4999C18.2995 42.4999 17.962 42.2249 17.4495 39.8499C17.0995 38.1874 16.8995 37.6999 16.337 37.1249C15.7995 36.5749 15.2245 36.2249 14.0995 35.7499C13.0495 35.3124 12.5495 34.9124 12.2995 34.2999C12.0495 33.7124 12.0745 33.3499 12.4495 31.9999C12.712 31.0499 12.762 30.6249 12.7245 29.8624C12.662 28.7374 12.4495 28.3249 11.1995 26.8374C9.82446 25.1999 9.82446 24.5874 11.262 22.8749C12.8745 20.9499 13.0745 20.0624 12.4495 17.5999C12.1495 16.4374 12.1245 16.1999 12.2495 15.7374C12.462 14.9749 13.012 14.5124 14.3745 13.9374C15.762 13.3624 16.712 12.5624 17.0995 11.6624C17.237 11.3249 17.4495 10.5499 17.562 9.92494C17.7995 8.59994 18.1495 7.92494 18.7495 7.57494C19.137 7.33744 19.3995 7.31244 20.9995 7.31244C22.6245 7.31244 22.8745 7.27494 23.462 7.01244C24.1495 6.71244 24.762 6.11244 25.787 4.77494C26.962 3.23744 27.562 3.14994 29.7245 4.21244ZM16.662 42.7624C17.037 43.3124 17.937 43.9374 18.6245 44.1249C18.862 44.1874 19.787 44.2499 20.662 44.2499C22.7245 44.2499 22.8745 44.3124 23.9495 45.7624C24.3995 46.3749 24.9995 47.0624 25.287 47.2999L25.787 47.7249L22.7995 53.2374C20.6245 57.2374 19.787 58.6874 19.7245 58.5249C19.6745 58.4124 19.3245 56.7124 18.9495 54.7749C18.562 52.8249 18.187 51.1374 18.0995 51.0374C17.687 50.5374 17.512 50.5749 13.7995 52.0749C11.837 52.8624 10.1995 53.4999 10.1745 53.4749C10.1245 53.4124 16.162 42.2499 16.2495 42.2624C16.287 42.2624 16.462 42.4874 16.662 42.7624ZM50.9245 47.9999C52.537 50.9749 53.8495 53.4499 53.8245 53.4749C53.7995 53.4999 52.1745 52.8624 50.212 52.0749C46.487 50.5624 46.3245 50.5249 45.8995 51.0374C45.812 51.1374 45.4245 52.8249 45.0495 54.7749C44.6745 56.7124 44.3245 58.4124 44.2745 58.5249C44.212 58.6874 43.3745 57.2374 41.2245 53.2874L38.2745 47.8374L39.0495 47.0749C39.4745 46.6624 40.0995 45.9499 40.437 45.4999C41.2995 44.3749 41.4495 44.3249 43.6245 44.3124C45.587 44.2999 45.8495 44.2249 46.837 43.5124C47.112 43.3124 47.4495 42.9624 47.5745 42.7624C47.6995 42.5499 47.837 42.4249 47.887 42.4749C47.937 42.5249 49.2995 45.0124 50.9245 47.9999Z" fill="#326BFF"/>
<path d="M30.1864 9.2625C24.5614 10.0125 19.8489 13.5625 17.6364 18.7C16.8239 20.575 16.4864 22.15 16.4114 24.325C16.3614 25.7875 16.3864 26.5125 16.5614 27.5125C17.9864 36.0375 25.9364 41.825 34.4614 40.55C40.7489 39.625 45.8239 35.025 47.4489 28.7875C47.8489 27.2875 47.9989 24.2625 47.7614 22.6125C46.8239 16.2375 41.9614 11 35.6364 9.55C34.1239 9.2 31.5989 9.0625 30.1864 9.2625ZM34.1239 11.05C39.7864 11.9125 44.2864 15.95 45.7489 21.5C46.1364 22.9875 46.2364 25.8625 45.9364 27.4375C44.7989 33.4875 40.0739 38 33.9364 38.875C28.2114 39.6875 22.3239 36.575 19.6239 31.3C18.4864 29.0875 18.0489 26.9625 18.1614 24.2625C18.2364 22.425 18.4739 21.275 19.1239 19.675C21.4989 13.725 27.8114 10.1 34.1239 11.05Z" fill="#326BFF"/>
<path d="M31.8375 14.4374C31.3875 14.5874 28.5625 16.4374 27.1625 17.4874C26.4 18.0624 26 18.8249 26 19.6999C26 21.5874 27.975 22.8249 29.7875 22.0624C29.9875 21.9749 30 22.2999 30 27.7124C30 31.7249 30.0375 33.5874 30.15 33.8874C30.3625 34.5499 30.7125 34.9749 31.3375 35.3374C32.5 36.0124 34 35.6624 34.8125 34.5249L35.1875 33.9749L35.225 25.2124C35.2625 15.3624 35.3 15.7499 34.3625 14.9499C33.9 14.5624 33.075 14.2374 32.5375 14.2499C32.4125 14.2624 32.1 14.3374 31.8375 14.4374ZM33.175 16.2624L33.5 16.5124V24.9499C33.5 33.2124 33.5 33.3749 33.25 33.6249C33.1125 33.7624 32.8375 33.8749 32.625 33.8749C32.4125 33.8749 32.1375 33.7624 32 33.6249C31.75 33.3749 31.75 33.2124 31.75 26.6999C31.75 20.3999 31.7375 20.0124 31.525 19.7374C31.1625 19.3124 30.6625 19.3749 29.775 19.9749C28.875 20.5874 28.2625 20.6749 27.95 20.2249C27.6625 19.8249 27.7 19.3374 28.0375 19.0374C28.5875 18.5374 32.425 15.9999 32.625 15.9999C32.75 15.9999 32.9875 16.1124 33.175 16.2624Z" fill="#326BFF"/>
</svg>
