<svg width="65" height="64" viewBox="0 0 65 64" fill="none" xmlns="http://www.w3.org/2000/svg">
<path d="M25.9467 0.333265L25.6134 0.653265V6.90661C25.6134 10.3466 25.56 13.4533 25.4934 13.8133C25.0934 15.9199 23.9334 17.64 22.12 18.8133C20.8134 19.6533 20.0267 19.8266 15.4534 20.2666C13.1867 20.48 10.9467 20.76 10.4667 20.8666C7.97334 21.44 5.88001 22.64 3.94667 24.5866C2.10667 26.4533 1.09333 28.24 0.373334 30.8666C0.0933334 31.9333 0.0933334 32 0.0533334 47.96L0 64H1.08H2.14667V62.1067V60.2L3.85334 61.9067C4.78667 62.84 5.60001 63.6 5.65334 63.6C5.78667 63.6 7.08001 62.3067 7.08001 62.1733C7.08001 62.1067 5.97334 60.96 4.61334 59.6L2.14667 57.1333V52.6267V48.12L3.36 49.1467C5.34667 50.8267 6.32001 52.2933 6.76001 54.2267C7.49334 57.52 8.02668 58.7733 9.29334 60.32C9.92001 61.08 13.16 63.8533 13.2667 63.72C13.28 63.6933 13.5733 63.32 13.92 62.8933L14.5467 62.1067L13.1733 61C10.5067 58.8533 9.62668 57.4933 9.02668 54.5333C8.76001 53.2133 8.54668 52.5867 8.02668 51.5333C7.16001 49.7867 6.29334 48.8 4.02667 46.9333L2.16 45.4V42.5733L2.14667 39.76L4.16 36.5333C5.26667 34.7733 6.46667 33.0133 6.82667 32.6266L7.46668 31.9333L7.48001 35.64C7.48001 39.28 7.46668 39.4133 7.01334 42.1733C6.74667 43.7333 6.50667 45.16 6.46667 45.3466C6.40001 45.6933 6.42667 45.6933 7.41334 45.8533C7.97334 45.9466 8.46668 46 8.49334 45.96C8.53334 45.92 8.69334 45.12 8.84001 44.1866C9.00001 43.24 9.16001 42.4133 9.21334 42.36C9.26668 42.3066 9.66668 42.7333 10.0933 43.3066L10.8933 44.3733L11.6667 43.7866C12.1067 43.4666 12.48 43.1733 12.52 43.1466C12.5467 43.1066 11.92 42.1866 11.0933 41.0933L9.61334 39.1066V37.68V36.2666H11.7467H13.88V35.2V34.1333H11.7467H9.61334V32.1866V30.2533L10.4667 29.8666C10.9467 29.6533 11.76 29.3333 12.3067 29.1733C13.2267 28.8933 13.5467 28.88 18.92 28.8266C22.0134 28.8 24.5467 28.8266 24.5467 28.8666C24.5467 28.9066 23.8934 29.8933 23.0934 31.04C21.28 33.6533 20.36 35.1733 19.2934 37.32C17.0667 41.76 15.6534 46.4666 15.0134 51.6C14.7734 53.5067 13.84 55.7867 12.7467 57.12C12.4133 57.5333 12.1467 57.9067 12.1467 57.96C12.1467 58.1867 13.48 59.36 13.6533 59.2933C14 59.16 15.2134 57.4133 15.8134 56.2C16.1467 55.5333 16.56 54.4533 16.7334 53.8C16.9867 52.8133 17.36 52.0267 18.88 49.2933C19.8934 47.48 20.76 46.04 20.8134 46.0933C20.8534 46.16 20.9734 46.5333 21.0667 46.9333C21.4934 48.7067 22.5734 50.9333 23.9334 52.8533L24.7334 53.9733L25.2667 53.5867C25.5734 53.3733 25.96 53.08 26.1334 52.9467L26.4667 52.6933L25.7867 51.7867C24.0534 49.4133 23.1867 47.28 22.68 44.16L22.52 43.1866L23.2667 42.2C23.68 41.64 24.3867 40.7733 24.84 40.24L25.6667 39.2933L25.8934 40.64C26.0134 41.3866 26.28 42.48 26.4667 43.0933C26.8667 44.32 28.8 48.4 28.9734 48.4C29.0667 48.4 30.6667 47.64 30.7867 47.5333C30.8134 47.5066 30.4 46.64 29.88 45.6C29.36 44.56 28.76 43.1866 28.5334 42.5333C28.08 41.1733 27.7467 39.16 27.7467 37.7866V36.8533L30.96 33.0933C32.7334 31.0266 34.24 29.3333 34.32 29.3333C34.3867 29.3333 35.12 30.0133 35.9467 30.8266L37.4534 32.3333L37.5467 33.5066C37.7467 35.88 37.3867 37.8266 36.3467 40.1333C35.16 42.76 34.0134 46.28 32.8267 50.9333C31.92 54.52 31.8934 54.1333 33.0934 54.4L34.1067 54.6267L34.72 52.1467C35.0667 50.7867 35.4267 49.3467 35.5467 48.96L35.76 48.2533L37.2134 50.0533L38.6534 51.8667L39.44 51.24C39.8667 50.8933 40.24 50.6 40.2667 50.5867C40.2934 50.56 39.4667 49.48 38.4267 48.1866C37.4 46.8933 36.5467 45.7466 36.5467 45.6533C36.5467 45.3733 37.5734 42.6266 38.2134 41.1866C39 39.4533 39.32 38.4266 39.56 36.9333C39.6667 36.24 39.7734 35.6133 39.8 35.5333C39.8667 35.2933 41.3734 38.1333 42 39.6933C43 42.1466 43.6534 44.48 44.8134 49.7333C45.7334 53.88 45.8801 54.7067 45.8134 55.3333C45.7067 56.2667 45.1734 57.8667 44.7201 58.64C44.1867 59.5467 42.8934 60.8667 41.92 61.4933C41.1334 62 41.0934 62.0533 41.2534 62.32C41.36 62.48 41.6 62.88 41.8 63.2267L42.16 63.8533L42.96 63.36C45.7601 61.64 47.6267 58.64 47.9467 55.3733C48.0001 54.88 48.3467 52.0667 48.7067 49.1333C49.3201 44.3066 49.3867 43.5466 49.3867 41.1333C49.3867 36.88 48.6534 33.3333 47.0401 29.7066L46.7067 28.96L47.5867 29.2933C48.0801 29.4666 48.8667 29.7866 49.3467 29.9866L50.2134 30.3333L51.7601 40.1466C53.4667 50.92 53.3734 50.52 54.6667 52.44C55.0401 53 55.3467 53.5733 55.3467 53.7067C55.3467 53.84 55.1467 54.96 54.8934 56.1733C54.6534 57.4 54.4934 58.4267 54.5334 58.4667C54.7067 58.56 56.4134 58.84 56.4801 58.7867C56.5067 58.7467 56.6267 58.2667 56.7467 57.72C57.1201 55.8933 57.0001 55.9467 57.8934 57.28C59.0534 59.04 59.1601 60.2267 58.2801 61.6C58.0534 61.9467 57.8801 62.2667 57.8801 62.3067C57.8801 62.3467 58.2534 62.64 58.7067 62.9467L59.5201 63.5067L59.7867 63.1867C60.6801 62.08 61.1601 60.32 60.9334 58.92C60.7601 57.8 60.4534 57.2533 57.8534 53.36C56.6134 51.4933 55.5334 49.8133 55.4667 49.6133C55.4001 49.4267 55.1734 48.0933 54.9467 46.6666C54.7201 45.24 54.5067 43.8933 54.4667 43.6933L54.3867 43.32L55.7334 43.9866C56.4667 44.36 57.0934 44.6666 57.1201 44.6666C57.2001 44.6666 58.0667 42.8 58.0001 42.7466C57.9734 42.72 57.0801 42.2666 56.0134 41.7333C54.9467 41.2 54.0667 40.76 54.0401 40.7333C53.9867 40.6933 52.5467 31.56 52.5867 31.52C52.6667 31.4266 55.2667 33.28 56.1201 34.04C58.0534 35.76 59.4001 37.48 60.9601 40.2266L61.8801 41.8533V46.5333V51.2H62.9467H64.0134V44.9333C64.0134 41.3866 63.9467 38.0933 63.8667 37.36C63.0667 30.0933 59.0534 23.7333 52.8134 19.8533C51.2001 18.8533 50.0001 18.3333 46.1467 16.9466C44.2801 16.2666 42.44 15.5333 42.0534 15.3066C40.64 14.4533 39.3867 12.9199 38.8 11.2933C38.5067 10.5066 38.4934 10.2266 38.4267 5.49327L38.3467 0.506599L38.0267 0.253265C37.7334 0.0132647 37.4267 -6.86049e-05 31.9867 -6.86049e-05H26.2667L25.9467 0.333265ZM36.28 5.91994C36.28 10.0266 36.3867 11.0133 37 12.5066C37.76 14.3866 39.28 16.1466 41.0534 17.1866C41.56 17.48 43.36 18.2133 45.2134 18.8666C50.0401 20.5866 51.9334 21.56 54.3734 23.6133C58.1201 26.76 60.8401 31.6 61.5867 36.4666C61.7334 37.3733 61.8001 37.4133 60.6534 35.8266C59.2401 33.88 56.9601 31.76 54.8134 30.3733C53.1067 29.2533 51.5201 28.52 47.9601 27.1466L44.7334 25.9066L43.8801 25C42.7867 23.8533 41.3467 22.6933 40.12 21.9866C38.88 21.2533 36.8 20.36 36.68 20.4933C36.5867 20.6 35.88 22.24 35.88 22.3466C35.88 22.3733 35.9467 22.4 36.0134 22.4C36.3334 22.4 38.8 23.6533 39.8267 24.3333C41.16 25.2266 42.6934 26.7066 43.6134 28.0266C46.0267 31.44 47.5467 37.32 47.2934 42.1733C47.2134 43.6533 46.7467 47.8533 46.6534 47.9466C46.6267 47.9733 46.4667 47.32 46.2934 46.4933C45.9201 44.7333 44.8401 41.08 44.2001 39.4133C42.4934 34.9866 39.76 31.1733 35.92 27.8533C34.4 26.5466 34.04 26.4133 33.44 26.96C32.96 27.4133 22.8934 39.2 21.8667 40.5333C20.8934 41.8 19.92 43.2133 18.92 44.84C18.2134 46.0133 18.2134 46 18.9067 43.8266C19.4934 41.9866 20.2267 40.2266 21.2667 38.1333C22.32 36.0266 23.0934 34.8 25.6667 31.0666C27.9067 27.8266 28.0134 27.5866 27.4134 26.9866L27.08 26.6533L20.04 26.6933L13.0133 26.7466L11.76 27.1066C9.12001 27.8666 6.69334 29.4266 5.04001 31.4C4.61334 31.9066 3.84 33.0266 3.32 33.8666C2.8 34.7066 2.32 35.4533 2.24 35.5333C2.16 35.6133 2.14667 35.0266 2.18667 33.8666C2.30667 30.84 3.08 28.7866 4.97334 26.52C6.08001 25.1866 8.02668 23.8933 9.84001 23.28C11.0667 22.8666 11.9467 22.7333 16.2 22.3333C19.8934 21.9866 20.8534 21.8133 22.08 21.2666C24.24 20.32 26.2667 18.1866 27.0934 16.0133C27.68 14.4266 27.7467 13.6399 27.7467 7.71994V2.13327H32.0134H36.28V5.91994Z" fill="#326BFF"/>
</svg>
