<svg width="64" height="56" viewBox="0 0 64 56" fill="none" xmlns="http://www.w3.org/2000/svg">
<path d="M14.957 0.114654C9.68921 0.949949 5.06814 4.03515 2.45448 8.49455C-1.16962 14.638 -0.751976 22.1961 3.51881 28.0162C3.86909 28.4877 10.1607 34.9006 17.5033 42.2566C27.5942 52.361 30.9623 55.6618 31.2856 55.7426C31.5551 55.8234 31.9054 55.8234 32.1748 55.7426C32.4981 55.6618 35.9202 52.3071 46.1593 42.0545C57.6648 30.5221 59.8338 28.2991 60.4671 27.3156C61.8143 25.2678 62.7439 22.991 63.202 20.6198C63.5253 19.0166 63.5118 15.9314 63.202 14.3416C61.9221 7.8344 57.6513 2.90346 51.5213 0.869114C49.3792 0.155072 47.7086 -0.0739606 45.3509 0.0203469C42.5621 0.128127 40.5412 0.626609 38.1701 1.79872C36.4186 2.66096 35.0849 3.64445 33.32 5.35546L31.7302 6.89132L30.0731 5.28809C27.2439 2.52623 24.738 1.13856 21.0869 0.303269C20.0226 0.0607644 16.0886 -0.0604881 14.957 0.114654ZM18.9179 3.21333C21.2351 3.45583 23.3773 4.21029 25.3038 5.44976C25.8697 5.81352 27.2304 7.01257 28.5777 8.33288C31.8245 11.5124 31.6359 11.4989 34.7615 8.45413C37.5234 5.7731 38.8706 4.87045 41.4304 4.03515C42.5082 3.67139 44.5695 3.34805 45.7416 3.34805C47.749 3.34805 50.3492 3.96779 52.141 4.87045C53.9329 5.75963 55.846 7.36286 57.1528 9.04692C60.9521 13.9644 60.979 21.2799 57.2067 26.2513C56.8295 26.7363 50.9555 32.7046 44.1384 39.5217L31.7302 51.9164L18.9448 39.1175C5.2837 25.4295 5.40496 25.5642 4.36757 23.1661C3.47839 21.0779 3.23588 19.8923 3.24936 17.4268C3.26283 15.5541 3.30325 15.0961 3.61311 13.9644C4.79869 9.51846 8.01862 5.84047 12.2355 4.1564C13.6905 3.57709 15.1321 3.28069 17.3281 3.09208C17.4494 3.09208 18.1634 3.14597 18.9179 3.21333Z" fill="#326BFF"/>
</svg>
