<svg width="64" height="64" viewBox="0 0 64 64" fill="none" xmlns="http://www.w3.org/2000/svg">
<path d="M24.8663 0.306554C20.1206 1.49699 14.8071 4.07626 12.0848 6.4968C10.4689 7.93855 9.72648 10.2004 10.2069 12.2241C10.3379 12.7929 10.4398 13.2558 10.4107 13.269C10.3961 13.2823 9.93029 13.4278 9.36254 13.5865C6.53838 14.4066 4.38386 16.3113 3.27748 18.9434C2.85531 19.9619 2.8262 20.1206 2.8262 21.8666C2.8262 22.8983 2.89898 23.8639 2.98633 24.0491C3.13191 24.3533 3.05912 24.4591 2.36036 25.1734C0.686235 26.8664 -0.128988 29.0092 0.0165873 31.3768C0.103933 32.9376 0.453314 34.009 1.31221 35.345L1.89451 36.2444L1.53057 36.8661C0.54066 38.5327 0.17672 40.8209 0.613447 42.6992C1.07929 44.6965 2.63695 46.8525 4.44209 47.99L5.14085 48.4265V50.1592C5.14085 51.72 5.18452 51.9978 5.54846 52.9501C6.56749 55.5823 8.57643 57.4209 11.4297 58.3468C12.3614 58.651 12.4633 58.7171 13.133 59.6166C14.2102 61.0715 15.6369 62.1826 17.3692 62.9365C20.863 64.4841 24.4879 64.3386 27.8943 62.5265C28.9861 61.9313 30.7767 60.2779 31.4173 59.2594C31.6938 58.8097 31.9559 58.4393 31.9996 58.4393C32.0432 58.4526 32.3053 58.8097 32.5819 59.2594C33.2078 60.2647 34.9984 61.9181 36.1193 62.5265C37.9099 63.4921 39.8461 63.9947 41.7968 63.9947C45.378 63.9947 48.8281 62.3281 50.8662 59.6166C51.5504 58.7171 51.6232 58.651 52.5403 58.3732C53.865 57.9764 55.117 57.2621 56.1506 56.3098C57.2278 55.3442 57.912 54.3257 58.4507 52.9501C58.8146 51.9978 58.8583 51.72 58.8583 50.1592V48.4265L59.557 47.99C60.6925 47.2757 61.959 45.9266 62.585 44.7361C63.9097 42.2627 63.9097 39.6437 62.6141 37.1571C62.2065 36.3767 62.1337 36.1253 62.2647 35.9666C62.7597 35.3582 63.6186 33.5196 63.8224 32.6466C64.1427 31.2578 64.0262 29.4722 63.5021 28.0965C63.1091 27.0252 62.0464 25.4511 61.2894 24.7898C60.8818 24.4459 60.8672 24.393 61.0128 23.9962C61.1147 23.7581 61.1875 22.8586 61.1875 21.8666C61.1875 20.3323 61.1438 20.0413 60.7799 19.0889C59.7317 16.3906 57.4899 14.3933 54.6075 13.5733C53.6612 13.3087 53.5448 13.2426 53.6175 13.0045C54.3891 10.6501 53.7194 8.09727 51.9143 6.4968C48.6534 3.58686 41.0835 0.240419 37.2257 0.0155594C35.3769 -0.103484 33.6446 0.531414 32.5091 1.73507L31.9996 2.26415L31.4173 1.66894C29.9033 0.0949216 27.5886 -0.381251 24.8663 0.306554ZM28.8842 2.13188C29.5102 2.42288 30.209 3.11068 30.5875 3.79849C30.9077 4.40693 30.9077 4.43339 30.9514 11.9199L30.9951 19.4328L30.4419 19.036C29.6267 18.4408 28.6222 18.0837 27.5158 18.0043C26.6569 17.9382 26.4968 17.9646 26.1474 18.2292C25.8854 18.4144 25.7398 18.6392 25.7398 18.8773C25.7398 19.5254 26.0455 19.7238 27.1664 19.8296C27.7342 19.8826 28.3893 20.0281 28.6513 20.1471C29.321 20.4645 30.1799 21.3243 30.602 22.1047L30.9805 22.7793V35.464V48.1619L29.9178 47.2493C28.7532 46.2573 27.6905 45.6356 26.293 45.1065C24.4879 44.4584 23.5562 44.6039 23.5562 45.543C23.5562 46.0853 23.8619 46.3234 24.9391 46.6012C28.4766 47.5138 30.9805 50.556 30.9805 53.9422C30.966 57.8309 28.2437 61.0186 24.1385 61.9577C22.9593 62.2223 20.6301 62.1561 19.5528 61.8122C17.1508 61.0583 15.2438 59.6033 14.3121 57.8309C13.9482 57.1299 13.6716 56.9579 12.638 56.786C10.993 56.495 8.75113 54.8813 7.9359 53.3998C7.13524 51.9449 6.88776 50.1857 7.26625 48.6778C7.52829 47.6725 7.38272 47.408 6.36369 46.9054C4.54399 46.0324 3.00089 44.1674 2.57872 42.342C2.3458 41.2839 2.47682 39.5115 2.88443 38.5723C3.05912 38.1491 3.24837 37.7787 3.33571 37.739C3.4085 37.6994 3.75788 37.8449 4.12182 38.0697C5.65036 39.0221 7.47006 39.5247 9.479 39.5247C10.9202 39.5247 11.3278 39.3263 11.3278 38.612C11.3278 37.9374 10.7746 37.6729 9.36254 37.6729C5.27187 37.6729 2.02553 34.6836 2.01097 30.9271C2.01097 28.9563 2.65151 27.5939 4.29651 26.0331C4.87881 25.4908 5.35921 24.9485 5.35921 24.8427C5.35921 24.7369 5.2282 24.2607 5.06806 23.811C4.64589 22.5676 4.67501 21.0069 5.14085 19.7238C6.21811 16.8139 8.91126 15.0547 12.2886 15.0547C16.19 15.0547 19.349 17.7133 19.7275 21.3243C19.8003 22.0386 19.8877 22.3163 20.1497 22.5544C20.5864 22.9512 21.0086 22.938 21.4744 22.5147C21.8238 22.1841 21.8384 22.1312 21.751 21.192C21.62 19.9355 21.1978 18.6657 20.5428 17.5678C19.8294 16.3906 18.0971 14.8563 16.7578 14.2214C15.7096 13.7188 13.8172 13.2029 13.0602 13.2029C12.7253 13.2029 12.6234 13.1103 12.3905 12.568C11.9829 11.5892 12.0266 10.0284 12.507 9.0893C13.0456 8.04437 13.8172 7.33011 14.9381 6.82748C15.8115 6.43067 16.0299 6.39099 17.2236 6.39099C18.2572 6.39099 18.6794 6.45712 19.218 6.68198C20.237 7.10525 21.3143 8.08405 21.8238 9.06285C22.4061 10.1739 23.0612 10.4781 23.7017 9.89615C24.1094 9.52579 24.0657 9.00994 23.5562 8.08405C22.7118 6.54971 21.2415 5.38573 19.4509 4.84342L18.5629 4.56566L19.5092 4.12917C21.3289 3.29586 23.5998 2.51547 25.9582 1.92025C26.5114 1.77475 28.433 1.90702 28.8842 2.13188ZM40.2246 2.54192C41.3455 2.88582 42.9905 3.48104 43.864 3.86462L45.4653 4.55243L44.5627 4.8302C42.743 5.39896 41.2727 6.56294 40.4284 8.1105C39.9043 9.0893 39.9189 9.56547 40.4721 9.93583C41.1126 10.3723 41.5784 10.1342 42.1462 9.11576C42.7139 8.05759 43.6311 7.21106 44.6646 6.74812C45.3488 6.4439 45.6546 6.39099 46.7755 6.39099C47.9692 6.39099 48.1876 6.43067 49.061 6.82748C50.182 7.33011 50.9535 8.04437 51.4921 9.0893C51.9725 10.0284 52.0162 11.5892 51.6086 12.568C51.3757 13.1103 51.2738 13.2029 50.9389 13.2029C50.182 13.2029 48.2895 13.7188 47.2413 14.2214C45.9166 14.8431 44.1842 16.3774 43.4709 17.5678C42.8013 18.6657 42.3791 19.9355 42.2481 21.192C42.1607 22.1312 42.1753 22.1841 42.5247 22.5147C42.9905 22.938 43.4127 22.9512 43.8494 22.5544C44.1115 22.3163 44.1988 22.0386 44.2716 21.3243C44.6501 17.7133 47.8091 15.0547 51.7105 15.0547C55.0879 15.0547 57.781 16.8139 58.8583 19.7238C59.3241 21.0069 59.3532 22.5676 58.9311 23.811C58.7709 24.2607 58.6399 24.7369 58.6399 24.8559C58.6399 24.975 59.1203 25.504 59.7026 26.0464C61.3476 27.5675 61.9881 28.9431 61.9881 30.9271C61.9881 33.2948 60.7507 35.3714 58.5817 36.6412C57.3879 37.3422 56.1214 37.6729 54.6366 37.6729C53.2245 37.6729 52.6713 37.9374 52.6713 38.612C52.6713 39.3263 53.0789 39.5247 54.5347 39.5247C56.5582 39.5247 58.2614 39.0485 59.9064 38.0433L60.6634 37.5671L60.9546 38.202C61.8571 40.1067 61.7407 42.3156 60.6488 44.1938C60.052 45.2123 58.7709 46.3631 57.6354 46.9054C56.6164 47.408 56.4708 47.6725 56.7329 48.6778C57.1114 50.1857 56.8639 51.9449 56.0632 53.3998C55.2334 54.9077 53.0352 56.495 51.3611 56.786C50.3566 56.9579 50.0218 57.1431 49.7598 57.6986C49.3522 58.5584 48.2167 59.8282 47.2704 60.4763C45.6254 61.6006 43.8931 62.1429 41.8696 62.1429C40.341 62.1429 39.4239 61.9445 37.9682 61.3228C36.9782 60.8996 36.5124 60.5821 35.6389 59.7753C34.387 58.6113 33.7173 57.5796 33.3097 56.1114C33.0331 55.1194 33.0186 54.5771 33.0186 36.6544V18.216L33.368 17.5943C34.1832 16.1658 35.4206 15.3192 36.7453 15.3192C37.4004 15.3192 37.939 15.1473 38.1428 14.8695C38.3612 14.5917 38.2593 13.9965 37.9536 13.7188C37.677 13.4674 37.5169 13.441 36.527 13.4939C35.3187 13.56 34.1686 13.9701 33.4262 14.6314L33.0186 14.9753V9.94906C33.0186 6.81425 33.0768 4.73761 33.1787 4.40693C33.2661 4.11594 33.5281 3.60008 33.7756 3.26941C34.9839 1.62926 36.6289 1.44408 40.2246 2.54192Z" fill="#326BFF"/>
<path d="M11.4165 21.1657C11.2564 21.3773 11.1836 21.7741 11.1836 22.4619C11.1982 26.4697 14.4154 29.9749 18.8409 30.7817L20.0637 31.0066L19.5105 31.8002C18.4333 33.2948 17.1668 34.1017 15.449 34.3795C14.0514 34.5911 13.9932 34.6175 13.804 35.0144C13.6001 35.4905 13.7166 35.9006 14.1388 36.099C14.8521 36.4561 17.0503 36.0725 18.3168 35.3847C19.8017 34.5779 21.4176 32.8583 22.029 31.4166C22.2619 30.8611 22.3056 30.8214 23.0626 30.6759C25.1589 30.2394 28.2159 28.1892 28.2159 27.2236C28.2159 26.8136 27.7064 26.3903 27.226 26.3903C26.8766 26.3903 26.5709 26.5623 25.8139 27.1972C24.2417 28.5331 22.7569 29.0754 20.6315 29.0754C18.4915 29.0754 16.5699 28.3215 15.1724 26.9459C13.8913 25.6761 13.3963 24.5518 13.2362 22.6074C13.1052 21.0863 12.9742 20.8747 12.1153 20.8747C11.7805 20.8747 11.5621 20.9672 11.4165 21.1657Z" fill="#326BFF"/>
<path d="M22.3483 39.0882C20.1356 39.4321 17.6025 40.6622 16.1468 42.1172C14.9094 43.3341 13.803 45.8605 13.803 47.4213C13.803 47.7916 13.803 47.7916 12.9296 47.7519C12.1726 47.7123 12.027 47.7387 11.6922 48.0429C10.8915 48.7704 11.4592 49.5773 12.7985 49.5773C16.7728 49.6037 19.5096 52.0243 20.2083 56.1379C20.4267 57.3283 20.6451 57.6458 21.2856 57.6458C22.1882 57.6458 22.4211 57.2357 22.2464 55.9791C21.9552 53.9554 20.9071 51.7597 19.5387 50.3973C18.6361 49.4847 17.2532 48.5985 16.3943 48.3604L15.7974 48.2017L15.8847 47.2758C15.9866 46.1515 16.4234 44.9478 17.0493 44.0484C18.0684 42.6066 20.3685 41.3104 22.7414 40.8607C24.1243 40.5961 24.43 40.4109 24.43 39.7893C24.43 39.4321 24.1243 39.1015 23.7022 38.9692C23.5857 38.9295 22.9743 38.9824 22.3483 39.0882Z" fill="#326BFF"/>
<path d="M53.6183 20.0149C53.298 20.2927 53.2544 20.4514 53.2544 21.2318C53.2544 25.5571 48.8871 28.758 44.1996 27.8718C42.9913 27.6469 41.652 26.9856 40.5602 26.0729C39.4683 25.1602 39.0899 25.0544 38.5803 25.5438C38.0417 26.0597 38.1582 26.4962 39.0462 27.2898C40.1234 28.2818 41.4482 29.0093 42.933 29.4326L44.185 29.7897L44.5781 30.5966C45.6408 32.8187 47.9263 34.5779 50.2992 35.0276C51.4783 35.2525 52.2208 35.1599 52.5702 34.7366C52.8176 34.4324 52.8322 34.3266 52.6866 33.9827C52.4828 33.533 52.0461 33.361 50.9543 33.2552C49.4548 33.1229 47.6351 31.8928 46.7471 30.4378L46.4123 29.9087L47.6206 29.6971C50.4156 29.1945 53.0214 27.3956 54.2588 25.1073C54.943 23.8375 55.2924 22.5413 55.2924 21.2318C55.2924 20.4514 55.2487 20.2927 54.9285 20.0149C54.4772 19.5917 54.0696 19.5917 53.6183 20.0149Z" fill="#326BFF"/>
<path d="M36.3818 36.866C35.7558 37.4348 36.2508 38.4665 37.1534 38.4665C38.3762 38.4665 41.0839 39.5511 42.2922 40.5167C43.6024 41.5616 44.4613 43.1621 44.6068 44.8683L44.7087 45.8207L43.8498 46.1514C41.9574 46.9053 40.3706 48.3603 39.3515 50.2914C38.7547 51.429 38.2743 53.0691 38.2306 54.1273C38.2015 54.8018 38.2452 54.9341 38.5363 55.1458C39.3224 55.7277 40.0649 55.3045 40.225 54.1934C40.6908 50.9131 42.4814 48.5058 45.1018 47.6593C45.4657 47.5402 46.412 47.3947 47.1981 47.3418C48.45 47.2492 48.6829 47.1963 48.9159 46.9318C49.2653 46.5482 49.2507 46.072 48.8868 45.7413C48.6538 45.5297 48.4064 45.4768 47.6639 45.4768H46.7468L46.6449 44.5774C46.5139 43.334 45.8588 41.7071 45.0436 40.596C43.6024 38.6252 40.4434 36.9718 37.561 36.6676C36.7894 36.5882 36.6584 36.6147 36.3818 36.866Z" fill="#326BFF"/>
</svg>
