<svg width="64" height="64" viewBox="0 0 64 64" fill="none" xmlns="http://www.w3.org/2000/svg">
<path d="M40 2.5V4H41H42V2.5V1H41H40V2.5Z" fill="white"/>
<path d="M54 2.5V4H55H56V2.5V1H55H54V2.5Z" fill="white"/>
<path d="M35.9625 2.40001L35.125 2.90001L35.35 3.28751C35.4875 3.51251 35.825 4.10001 36.1125 4.60001L36.6375 5.51251L37.075 5.25001C37.3125 5.11251 37.6875 4.88751 37.925 4.75001L38.35 4.48751L37.6 3.18751C37.1875 2.46251 36.85 1.87501 36.8375 1.88751C36.825 1.88751 36.4375 2.12501 35.9625 2.40001Z" fill="white"/>
<path d="M44.3879 3.18751L43.6504 4.48751L44.0754 4.75001C44.3129 4.88751 44.6879 5.11251 44.9254 5.25001L45.3629 5.51251L45.8879 4.60001C46.1754 4.10001 46.5129 3.51251 46.6504 3.28751L46.8754 2.90001L46.0129 2.40001L45.1379 1.88751L44.3879 3.18751Z" fill="white"/>
<path d="M49.9625 2.40001L49.125 2.90001L49.35 3.28751C49.4875 3.51251 49.825 4.10001 50.1125 4.60001L50.6375 5.51251L51.075 5.25001C51.3125 5.11251 51.6875 4.88751 51.925 4.75001L52.35 4.48751L51.6 3.18751C51.1875 2.46251 50.85 1.87501 50.8375 1.88751C50.825 1.88751 50.4375 2.12501 49.9625 2.40001Z" fill="white"/>
<path d="M58.3879 3.18751L57.6504 4.48751L58.0754 4.75001C58.3129 4.88751 58.6879 5.11251 58.9254 5.25001L59.3504 5.51251L60.0754 4.28751C60.4629 3.61251 60.8004 3.02501 60.8254 2.97501C60.8504 2.93751 60.4879 2.67501 60.0004 2.40001L59.1379 1.88751L58.3879 3.18751Z" fill="white"/>
<path d="M39.5123 6.2C36.8998 6.9 34.9998 9.35 34.9998 12C34.9998 13.2625 35.5498 14.825 36.3248 15.7375C36.4998 15.9625 36.6373 16.15 36.6123 16.175C36.5873 16.2 36.2373 16.3625 35.8498 16.5375C34.8873 16.9625 33.9623 17.9125 33.4623 18.975L33.0623 19.8125L33.0248 25.5875L32.9873 31.375L33.2998 31.6875L33.6123 32H47.9998H62.3873L62.6998 31.6875L63.0123 31.375L62.9748 25.5875L62.9373 19.8125L62.5373 18.975C62.0373 17.9125 61.1123 16.9625 60.1498 16.5375C59.7623 16.3625 59.4123 16.2 59.3873 16.175C59.3623 16.15 59.4998 15.9625 59.6748 15.7375C60.1373 15.1875 60.5873 14.2625 60.8123 13.4125C61.9248 9.15 57.8373 5.075 53.5623 6.1875C50.9123 6.8875 48.9998 9.325 48.9998 12C48.9998 13.2625 49.5498 14.825 50.3248 15.7375C50.4998 15.9625 50.6373 16.15 50.6123 16.175C50.5873 16.2 50.2498 16.35 49.8623 16.525C49.4748 16.7 48.8998 17.1 48.5748 17.4L47.9998 17.9625L47.4248 17.4C47.0998 17.1 46.5248 16.7 46.1373 16.525C45.7498 16.35 45.4123 16.2 45.3873 16.175C45.3623 16.15 45.4998 15.9625 45.6748 15.7375C46.4498 14.825 46.9998 13.2625 46.9998 12C46.9998 8.1625 43.1873 5.2125 39.5123 6.2ZM42.5748 8.3625C43.1873 8.625 44.5998 9.9 44.0623 9.6875C43.9248 9.6375 43.4998 9.4875 43.1248 9.3375C42.5748 9.1375 42.1498 9.0875 40.9998 9.0875C39.5873 9.0875 39.3498 9.1375 37.9373 9.7C37.7123 9.7875 37.7123 9.7625 37.9873 9.425C38.9873 8.15 40.9873 7.6875 42.5748 8.3625ZM56.5748 8.3625C57.1873 8.625 58.5998 9.9 58.0623 9.6875C57.9248 9.6375 57.4998 9.4875 57.1248 9.3375C56.5748 9.1375 56.1498 9.0875 54.9998 9.0875C53.5873 9.0875 53.3498 9.1375 51.9373 9.7C51.7123 9.7875 51.7123 9.7625 51.9873 9.425C52.9873 8.15 54.9873 7.6875 56.5748 8.3625ZM43.0498 11.475C43.8498 11.85 44.8748 12.6625 44.8748 12.925C44.8748 13.25 44.2373 14.375 43.8248 14.8C43.5748 15.05 43.0748 15.4 42.7123 15.5875C42.1498 15.8875 41.9123 15.9375 40.9998 15.9375C40.0873 15.9375 39.8498 15.8875 39.2873 15.5875C38.9248 15.4 38.4248 15.05 38.1748 14.8C37.7623 14.375 37.1248 13.25 37.1248 12.925C37.1248 12.8375 37.3498 12.575 37.6248 12.3375C39.0998 10.9875 41.2873 10.65 43.0498 11.475ZM57.0498 11.475C57.8498 11.85 58.8748 12.6625 58.8748 12.925C58.8748 13.25 58.2373 14.375 57.8248 14.8C57.5748 15.05 57.0748 15.4 56.7123 15.5875C56.1498 15.8875 55.9123 15.9375 54.9998 15.9375C54.0873 15.9375 53.8498 15.8875 53.2873 15.5875C52.9248 15.4 52.4248 15.05 52.1748 14.8C51.7623 14.375 51.1248 13.25 51.1248 12.925C51.1248 12.8375 51.3498 12.575 51.6248 12.3375C53.0998 10.9875 55.2873 10.65 57.0498 11.475ZM38.8623 21.4C38.3873 23.275 37.9998 24.95 37.9998 25.1125C37.9998 25.3375 38.3498 25.775 39.2873 26.7125C40.4123 27.8375 40.6248 28 40.9998 28C41.3748 28 41.5873 27.8375 42.7123 26.7125C43.6498 25.775 43.9998 25.3375 43.9998 25.1125C43.9998 24.95 43.6123 23.275 43.1373 21.4L42.2748 18H43.3498C43.9248 18 44.6373 18.0625 44.9248 18.15C45.6123 18.35 46.6498 19.3875 46.8498 20.075C46.9498 20.4375 46.9998 21.9625 46.9998 25.3V30H40.9998H34.9998V25.3C34.9998 21.9625 35.0498 20.4375 35.1498 20.075C35.3373 19.4375 36.3873 18.3625 36.9998 18.1625C37.2373 18.0875 37.9498 18.025 38.5748 18.0125L39.7248 18L38.8623 21.4ZM52.8623 21.4C52.3873 23.275 51.9998 24.95 51.9998 25.1125C51.9998 25.3375 52.3498 25.775 53.2873 26.7125C54.4123 27.8375 54.6248 28 54.9998 28C55.3748 28 55.5873 27.8375 56.7123 26.7125C57.6498 25.775 57.9998 25.3375 57.9998 25.1125C57.9998 24.95 57.6123 23.275 57.1373 21.4L56.2748 18H57.3498C57.9248 18 58.6373 18.0625 58.9248 18.15C59.6123 18.35 60.6498 19.3875 60.8498 20.075C60.9498 20.4375 60.9998 21.9625 60.9998 25.3V30H54.9998H48.9998V25.3C48.9998 21.9625 49.0498 20.4375 49.1498 20.075C49.3373 19.4375 50.3873 18.3625 50.9998 18.1625C51.2373 18.0875 51.9498 18.025 52.5748 18.0125L53.7248 18L52.8623 21.4ZM41.4748 23.025L41.8873 24.675L41.4373 25.1125L40.9998 25.5625L40.5623 25.1125L40.1123 24.675L40.5248 23.025C40.7498 22.1125 40.9623 21.375 40.9998 21.375C41.0373 21.375 41.2498 22.1125 41.4748 23.025ZM55.4748 23.025L55.8873 24.675L55.4373 25.1125L54.9998 25.5625L54.5623 25.1125L54.1123 24.675L54.5248 23.025C54.7498 22.1125 54.9623 21.375 54.9998 21.375C55.0373 21.375 55.2498 22.1125 55.4748 23.025Z" fill="white"/>
<path d="M1.3125 16.3125C1.1375 16.475 1 16.725 1 16.8625C1 17.325 2.5125 25.5375 2.8125 26.75C4.1375 32 7.025 37.15 11.025 41.4C11.8375 42.275 12.1875 42.2375 13.1375 41.2125C17.1125 36.9 19.875 31.9375 21.175 26.775C21.4875 25.575 23 17.3 23 16.85C23 16.525 22.45 16 22.1 16C21.95 16 20.825 16.4 19.6 16.8875C16.9375 17.9375 15.55 18.3125 13.525 18.5C10.5625 18.7875 8.175 18.3625 4.425 16.8875C3.1875 16.4 2.05 16 1.8875 16C1.7375 16 1.475 16.1375 1.3125 16.3125ZM5.725 19.525C8.1375 20.375 11.0625 20.75 13.5125 20.5125C15.8625 20.2875 17.6125 19.85 19.975 18.9C20.5875 18.6375 20.625 18.6375 20.625 18.8625C20.625 19.4 19.35 25.9375 19 27.15C18.2 29.9875 16.7875 33 15.0125 35.6375C13.9 37.3125 12.225 39.375 12 39.375C11.775 39.375 10.1 37.3125 8.9875 35.6375C7.2125 33 5.8 30 5 27.15C4.65 25.9625 3.375 19.4 3.375 18.85C3.375 18.65 3.425 18.65 4.0375 18.8875C4.3875 19.0375 5.15 19.325 5.725 19.525Z" fill="white"/>
<path d="M6.1378 22.825C5.5503 23.575 5.8753 24.0625 7.5128 24.875C8.9128 25.5875 9.3628 25.65 9.8128 25.1875C10.5003 24.5125 10.1503 23.95 8.4878 23.125C7.0378 22.3875 6.5253 22.325 6.1378 22.825Z" fill="white"/>
<path d="M15.4754 23.125C13.8754 23.95 13.5504 24.425 14.1379 25.175C14.5254 25.675 15.0379 25.6125 16.4879 24.875C18.1254 24.0625 18.4504 23.575 17.8629 22.825C17.4754 22.325 16.9129 22.4 15.4754 23.125Z" fill="white"/>
<path d="M7.31255 28.3125C6.75005 28.8625 6.85005 29.075 9.18755 32.5875C11.4625 36.0125 11.575 36.1375 12.3125 35.95C12.7375 35.8375 17 29.4875 17 28.9625C17 28.5375 16.5 28 16.1 28C15.9375 28 14.95 28.225 13.9125 28.4875L12 28.975L10.1 28.4875C9.05005 28.225 8.06255 28 7.90005 28C7.73755 28 7.47505 28.1375 7.31255 28.3125ZM11.375 30.875C11.95 31 12.1875 30.9875 12.8125 30.825C13.2125 30.725 13.575 30.65 13.6 30.675C13.65 30.7375 12.0875 33.1125 12 33.125C11.9375 33.125 10.475 30.9375 10.3875 30.7125C10.3625 30.6375 10.425 30.6125 10.5125 30.65C10.6125 30.6875 11 30.7875 11.375 30.875Z" fill="white"/>
<path d="M46.5623 36.3125C41.8873 37.575 37.9248 38.6875 37.7498 38.775C37.1123 39.125 37.1373 39.35 38.1123 43C38.6123 44.875 38.9873 46.425 38.9498 46.4625C38.9123 46.5 38.0248 46.775 36.9748 47.075L35.0623 47.625L33.2498 46.9125C32.2498 46.525 31.0998 46.05 30.6998 45.8625C30.0748 45.5625 29.0998 45.3 27.7748 45.05C27.4998 45 27.4998 44.9875 27.9248 44.375C30.2873 40.95 28.4873 36.25 24.4123 35.1875C20.7623 34.2375 16.9998 37.1875 16.9998 41C16.9998 42.2625 17.5498 43.825 18.3248 44.7375C18.4998 44.9625 18.6373 45.15 18.6123 45.175C18.5873 45.2 18.2373 45.3625 17.8498 45.5375C16.8873 45.9625 15.9623 46.9125 15.4623 47.975L15.0623 48.8125L15.0248 55.6L14.9873 62.375L15.2998 62.6875L15.6123 63H22.9998H30.3873L30.6873 62.6875L30.9998 62.3875V57.8875V53.3875L32.8373 54.0125C33.8498 54.35 34.8873 54.625 35.1373 54.625C35.4623 54.625 36.3623 54.275 38.0498 53.4875C39.3998 52.85 40.5373 52.375 40.5748 52.4125C40.6123 52.45 40.8248 53.1625 41.0498 53.9875C41.5123 55.675 41.7123 56 42.3248 56C42.8498 56 59.9748 51.4125 60.3373 51.175C60.4998 51.075 60.6623 50.85 60.6998 50.675C60.8123 50.25 56.6623 34.7125 56.3373 34.2875C56.1623 34.0625 55.9873 34 55.5873 34.0125C55.2998 34.025 51.2373 35.0625 46.5623 36.3125ZM56.7373 42.95C57.7123 46.625 58.4998 49.6625 58.4748 49.6875C58.4123 49.75 43.3998 53.75 43.2248 53.75C43.1123 53.75 42.4998 51.6375 41.2623 47.05C40.2873 43.375 39.4998 40.3375 39.5123 40.3125C39.5998 40.2375 54.4373 36.275 54.6873 36.2625C54.9123 36.25 55.1123 36.875 56.7373 42.95ZM24.5748 37.3625C25.1873 37.625 26.5998 38.9 26.0623 38.6875C25.9248 38.6375 25.4998 38.4875 25.1248 38.3375C24.5748 38.1375 24.1498 38.0875 22.9998 38.0875C21.5873 38.0875 21.3498 38.1375 19.9373 38.7C19.7123 38.7875 19.7123 38.7625 19.9873 38.425C20.9873 37.15 22.9873 36.6875 24.5748 37.3625ZM25.0498 40.475C25.8498 40.85 26.8748 41.6625 26.8748 41.925C26.8748 42.25 26.2373 43.375 25.8248 43.8C25.5748 44.05 25.0748 44.4 24.7123 44.5875C24.1498 44.8875 23.9123 44.9375 22.9998 44.9375C22.0873 44.9375 21.8498 44.8875 21.2873 44.5875C20.9248 44.4 20.4248 44.05 20.1748 43.8C19.7623 43.375 19.1248 42.25 19.1248 41.925C19.1248 41.8375 19.3498 41.575 19.6248 41.3375C21.0998 39.9875 23.2873 39.65 25.0498 40.475ZM21.6873 47.15C21.5373 47.6125 19.9998 54.1625 19.9998 54.35C19.9998 54.475 20.5373 55.3125 21.1998 56.225C22.9248 58.6125 23.0748 58.6125 24.7998 56.225C25.4623 55.3125 25.9998 54.475 25.9998 54.35C25.9998 54.1625 24.4498 47.5875 24.2998 47.1375C24.2623 47 24.5998 46.975 26.2748 47.025C28.5623 47.0875 28.1248 46.975 32.1873 48.6125C33.5498 49.175 34.8373 49.625 35.0373 49.625C35.2373 49.625 36.2623 49.375 37.2998 49.0625C38.3498 48.75 39.2998 48.5 39.3998 48.5C39.6248 48.5 40.0998 50.2 39.9248 50.3625C39.8623 50.4125 38.7623 50.95 37.4748 51.55L35.1248 52.65L32.6623 51.825C31.2998 51.375 30.0623 51 29.8998 51C29.7373 51 29.4748 51.1375 29.3123 51.3125L28.9998 51.6125V56.3125V61H22.9998H16.9998V55.3C16.9998 51.1875 17.0373 49.45 17.1498 49.075C17.3373 48.4375 18.3873 47.3625 18.9998 47.1625C19.6373 46.9625 21.7623 46.95 21.6873 47.15ZM23.4873 52.2625L23.8998 54.025L23.4748 54.6375C23.2498 54.975 23.0373 55.25 22.9998 55.25C22.9623 55.25 22.7498 54.975 22.5248 54.6375L22.0998 54.025L22.5123 52.2625C22.7373 51.2875 22.9498 50.5 22.9998 50.5C23.0498 50.5 23.2623 51.2875 23.4873 52.2625Z" fill="white"/>
<path d="M47.3749 39.2125C46.9999 39.3125 46.6499 39.4375 46.5999 39.4875C46.5499 39.525 46.5624 39.7875 46.6374 40.05C46.7624 40.5 46.7499 40.55 46.3874 40.925C44.8999 42.475 45.3999 45.025 47.3749 45.85C47.6124 45.95 48.1249 46.0125 48.5624 46C48.9749 45.9875 49.4374 45.975 49.5999 45.975C50.0124 45.975 50.4999 46.475 50.4999 46.875C50.4999 47.0625 50.3874 47.3625 50.2374 47.55C49.8749 48.0125 49.1249 48.0125 48.7624 47.55L48.4999 47.225L47.6249 47.4375C47.1374 47.55 46.7249 47.6875 46.6874 47.7375C46.5749 47.925 47.1749 48.9 47.5874 49.2125C47.8249 49.4 48.3124 49.6375 48.6624 49.7625C49.2499 49.9625 49.3249 50.025 49.4249 50.4625C49.4874 50.725 49.5499 50.9625 49.5749 50.9875C49.6374 51.05 51.3749 50.6125 51.4374 50.5C51.4624 50.45 51.4374 50.2 51.3624 49.9375C51.2374 49.5 51.2624 49.4375 51.6124 49.075C53.1124 47.525 52.5999 44.9875 50.6249 44.15C50.3624 44.0375 49.8749 43.975 49.4374 43.9875C49.0249 44 48.5624 44.025 48.3999 44.025C47.9624 44.025 47.4999 43.525 47.4999 43.0625C47.4999 42.1875 48.6999 41.775 49.2374 42.45L49.4999 42.775L50.3749 42.5625C50.8624 42.45 51.2749 42.3125 51.3124 42.2625C51.4249 42.075 50.8249 41.1 50.4124 40.7875C50.1749 40.6 49.6874 40.3625 49.3374 40.2375C48.7374 40.0375 48.6749 39.9875 48.5749 39.5125C48.4499 38.9375 48.4124 38.925 47.3749 39.2125Z" fill="white"/>
</svg>
