<svg width="64" height="64" viewBox="0 0 64 64" fill="none" xmlns="http://www.w3.org/2000/svg">
<g clip-path="url(#clip0_116_14)">
<path d="M49.6627 0.187511C47.8502 0.675013 45.6377 1.87501 44.6877 2.86251L44.3252 3.25001L45.0002 3.93751L45.6627 4.61251L46.5377 3.92501C47.5377 3.15001 48.8127 2.50001 50.0002 2.16251C51.2627 1.82501 53.7752 1.85001 55.0002 2.23751C57.7377 3.07501 60.0252 5.07501 61.1127 7.56251C61.8502 9.22501 62.0752 11.6125 61.6752 13.4125C61.4252 14.5875 60.4127 16.65 59.7002 17.45L59.1377 18.0875L59.8627 18.8L60.5877 19.5125L61.0877 18.9125C63.0127 16.575 63.8752 14.225 63.8752 11.2875C63.8752 8.97501 63.2377 6.88751 61.9502 4.95001C60.4627 2.71251 58.2252 1.08751 55.5752 0.312511C54.5877 0.0375118 54.2627 1.14441e-05 52.3877 0.0125122C51.0252 0.0125122 50.0877 0.0750122 49.6627 0.187511Z" fill="white"/>
<path d="M20.9877 1.0125L20.3252 1.7875L21.0252 2.425C21.4127 2.775 25.8127 6.9625 30.8002 11.7375L39.8627 20.4125L39.9002 28.8625L39.9377 37.3125L45.2252 46.375C48.1377 51.3625 50.5252 55.4875 50.5377 55.5375C50.5502 55.6 49.3877 56.3125 47.9377 57.125C46.5002 57.95 45.2502 58.7125 45.1627 58.825C44.9377 59.1375 44.9627 59.675 45.2252 59.9875C45.3877 60.2 46.8752 60.65 52.1502 62.125C55.8502 63.1625 58.9752 64 59.1127 64C59.7002 64 59.8377 63.675 61.9377 57.375C63.0752 53.975 64.0002 51.0625 64.0002 50.9C64.0002 50.525 63.4752 50 63.1002 50C62.9377 50 61.6002 50.475 60.1377 51.0625C58.6627 51.6375 57.4377 52.1 57.4252 52.0875C57.4127 52.075 55.2877 48.3875 52.7002 43.9L48.0002 35.725V26.7C48.0002 19.675 47.9627 17.625 47.8502 17.4625C47.7627 17.35 43.8377 13.6625 39.1252 9.25L30.5627 1.25L29.9127 1.975C29.5502 2.3625 29.2752 2.725 29.2877 2.7625C29.3002 2.8125 33.0627 6.35 37.6627 10.6375L46.0002 18.425V27.35V36.2625L51.0752 45.1C53.8627 49.9625 56.2627 54.0375 56.4002 54.15C56.5377 54.275 56.7752 54.375 56.9252 54.375C57.1252 54.375 59.2002 53.6125 61.2127 52.7875C61.3377 52.7375 58.4877 61.55 58.3377 61.7125C58.3002 61.7375 49.5752 59.375 48.7127 59.0875C48.6502 59.075 49.4752 58.575 50.5252 58C52.6377 56.825 53.0002 56.5375 53.0002 56.0625C53.0002 55.85 50.9627 52.225 47.5002 46.2875L42.0002 36.8375L41.9877 28.5125C41.9877 22.3875 41.9502 20.075 41.8377 19.7875C41.7377 19.5125 38.8127 16.6375 32.4377 10.55C27.3502 5.7 22.8502 1.3875 22.4252 0.974998L21.6627 0.237499L20.9877 1.0125Z" fill="white"/>
<path d="M13 3V4H14H15V3V2H14H13V3Z" fill="white"/>
<path d="M53.0003 5.23751V6.46251L51.8128 7.25001C51.1503 7.68751 50.5878 8.08751 50.5503 8.13751C50.4378 8.32501 51.5003 9.77501 51.6878 9.70001C52.1128 9.53751 54.8503 7.62501 54.9253 7.43751C54.9628 7.32501 55.0003 6.50001 55.0003 5.61251V4.00001H54.0003H53.0003V5.23751Z" fill="white"/>
<path d="M19.6371 5.30001L18.9746 5.97501L19.2621 6.36251C19.4871 6.67501 19.5621 6.97501 19.6371 8.13751C19.7621 9.85001 20.0996 10.6625 21.0121 11.525C21.7996 12.2625 22.6871 12.6 24.0996 12.7C25.5371 12.8 25.8996 12.925 26.4246 13.5C26.9371 14.0625 26.9496 14.125 27.1121 15.85C27.2996 17.825 27.9621 18.9125 29.4371 19.6375C30.0996 19.9625 30.4496 20.05 31.5246 20.125C32.7746 20.225 33.1871 20.325 33.6496 20.65C33.8496 20.7875 33.9621 20.725 34.5246 20.15C35.3246 19.3625 35.2871 19.25 34.1121 18.65C33.4996 18.3375 33.0996 18.2375 32.3746 18.175C30.5996 18.05 30.3871 18 29.9121 17.5875C29.3121 17.0625 29.1621 16.6625 29.0621 15.25C28.9496 13.7625 28.6371 12.9375 27.9246 12.1375C27.0871 11.2 26.2996 10.8625 24.6371 10.75C23.2371 10.6375 22.9121 10.5375 22.3996 10.075C21.8871 9.61251 21.7246 9.12501 21.6246 7.75001C21.5621 7.02501 21.4496 6.26251 21.3621 6.06251C21.1496 5.57501 20.5121 4.62501 20.3996 4.62501C20.3496 4.62501 19.9996 4.92501 19.6371 5.30001Z" fill="white"/>
<path d="M43.8998 5.28751L43.2373 5.96251L43.5123 6.42501C43.7123 6.77501 43.7998 7.20001 43.8873 8.26251C43.9998 9.91251 44.3123 10.6875 45.1998 11.5C46.0873 12.3125 46.8373 12.6 48.4498 12.725C49.9623 12.8375 50.3498 13 50.8873 13.775C51.1123 14.0875 51.1873 14.425 51.2748 15.55C51.3998 17.1625 51.6873 17.9125 52.4998 18.8C53.3123 19.6875 54.0873 20 55.7373 20.1125C56.7998 20.2 57.2248 20.2875 57.5748 20.5L58.0373 20.7625L58.7373 20.0625L59.4373 19.3625L59.1248 19.1125C58.3123 18.4625 57.1998 18.125 55.8623 18.125C54.9873 18.125 54.4498 17.925 53.9498 17.425C53.4623 16.925 53.3623 16.625 53.2498 15.175C53.0998 13.15 52.3998 11.9625 50.9498 11.25C50.2873 10.925 49.9248 10.8375 48.8498 10.75C47.2748 10.625 47.0498 10.5375 46.4748 9.90001C45.9873 9.36251 45.9248 9.13751 45.8248 7.62501C45.7998 7.11251 45.6873 6.45001 45.5873 6.15001C45.3998 5.61251 44.7873 4.62501 44.6373 4.62501C44.5873 4.62501 44.2623 4.92501 43.8998 5.28751Z" fill="white"/>
<path d="M15.8877 7.95C14.6877 9.3125 13.7002 11.325 13.3252 13.15C12.9877 14.8125 13.1252 17.6375 13.6002 18.8875C13.7252 19.1875 13.6252 19.3125 11.9127 21.0125C10.0377 22.8875 9.68768 23.35 9.80018 23.8C9.83768 23.9375 11.2627 25.45 12.9752 27.15C15.5877 29.7625 16.1252 30.25 16.4377 30.25C16.7377 30.25 17.1377 29.9125 18.7627 28.3L20.7377 26.3375L21.4627 26.5375C24.9377 27.5 28.7877 26.725 31.6752 24.4875C32.2002 24.075 32.6252 23.7 32.6252 23.65C32.6252 23.6 32.3252 23.25 31.9502 22.8875L31.2752 22.225L30.5877 22.7875C29.6377 23.5625 28.9627 23.9375 27.7752 24.375C25.3502 25.2625 22.1252 25.1 21.1002 24.0375L20.7002 23.625L23.1627 21.15L25.6252 18.6875L24.9127 17.9625L24.1877 17.25L21.7252 19.7125L19.2502 22.1875L18.5377 21.4625L17.8127 20.75L20.2877 18.275L22.7502 15.8125L22.0627 15.125L21.3752 14.4375L18.9002 16.9125L16.4252 19.375L15.9627 18.9C15.3752 18.3 15.1252 17.2625 15.1252 15.425C15.1252 13.2625 15.7877 11.3375 17.1377 9.575L17.7877 8.7375L17.1002 8.05L16.4127 7.35L15.8877 7.95ZM17.2502 22.9375L19.3127 25L17.9377 26.375C17.1877 27.125 16.5127 27.75 16.4377 27.75C16.3627 27.75 15.3877 26.825 14.2502 25.6875L12.2002 23.6375L12.5627 23.25L12.9252 22.875L14.0002 23.9375L15.0752 25L15.7502 24.3125L16.4252 23.625L15.3752 22.5625L14.3252 21.5125L14.6252 21.1875C14.7877 21.0125 14.9752 20.875 15.0502 20.875C15.1252 20.875 16.1127 21.8 17.2502 22.9375Z" fill="white"/>
<path d="M55.0875 10.0625C54.2125 10.65 53.5 11.1625 53.5 11.2C53.5 11.325 54.5125 12.75 54.6 12.75C54.65 12.75 55.275 12.35 56 11.875L57.3125 11H58.6625H60V10V9H58.3375H56.6875L55.0875 10.0625Z" fill="white"/>
<path d="M0.3125 21.3125L0 21.6125V28.95V36.275L3.5 43.75L7 51.225V57.6125V64H8H9V57.3875V50.775L5.5 43.3125L2 35.8375V29.5625V23.275L3.0375 23.5375L4.0625 23.8125L4.55 29.5625L5.025 35.3125L8.0875 40.4375C9.775 43.25 11.2625 45.6625 11.4 45.775C11.625 45.975 11.9375 46 13.8875 46C16.1 46 16.125 46 16.175 46.275C16.2125 46.4375 16.525 48.4375 16.875 50.7125C17.475 54.675 17.5 54.9875 17.5 57.4375V60H18.5H19.5L19.4875 57.275C19.4875 54.65 19.4625 54.425 18.825 50.3125L18.175 46.0625L21.3125 46L24.4375 45.9375L28 43.9C29.9625 42.775 31.6625 41.7375 31.775 41.6C31.9875 41.3625 32 40.875 32 35.175V29H33.5H35L34.975 36.275L34.9375 43.55L30.5875 46.9375C28.1875 48.8 26.175 50.4125 26.1125 50.5125C26.05 50.6125 26 53.5875 26 57.3375V64H27H28L28.025 57.725L28.0625 51.45L32.4125 48.0625C34.8125 46.2 36.825 44.5875 36.8875 44.4875C36.95 44.3875 37 40.7375 37 35.9625V27.6125L36.6875 27.3125L36.3875 27H33.5H30.6125L30.3125 27.3125L30 27.6125V34.025L29.9875 40.4375L26.8625 42.2125L23.75 44H21.875H20V43.5125V43.0375L20.925 42.975C22.55 42.875 23.8625 41.9875 24.5875 40.525L24.9375 39.8125L24.975 35.725L25.0125 31.625L24.7 31.3125L24.3875 31H20.4875C17.8 31 16.4375 31.05 16.075 31.15C15.3875 31.35 14.35 32.3875 14.15 33.075C14.0375 33.45 14 35.075 14 38.8V44H13.275H12.5625L9.775 39.35L6.975 34.6875L6.4875 28.875C6.225 25.675 6 22.975 6 22.8625C6 22.325 5.6 22.125 3.375 21.5625C2.175 21.25 1.0625 21 0.9 21C0.7375 21 0.475 21.1375 0.3125 21.3125ZM23 33.5V34H20.8375H18.6625L17.3375 35L16 36V34.8125C16 33.7125 16.025 33.5875 16.3125 33.3125L16.6125 33H19.8125H23V33.5ZM23 37.5875C23 38.875 22.95 39.2875 22.7625 39.6875C22.3 40.7 21.6375 41 19.875 41C18.7 41 18.5875 41.025 18.3125 41.3125C18.025 41.5875 18 41.7125 18 42.8125V44H17H16V41.25V38.5L17.6625 37.25L19.3125 36H21.1625H23V37.5875Z" fill="white"/>
<path d="M59 25V26H60H61V25V24H60H59V25Z" fill="white"/>
<path d="M52 26V27H53H54V26V25H53H52V26Z" fill="white"/>
<path d="M54 32V33H55H56V32V31H55H54V32Z" fill="white"/>
</g>
<defs>
<clipPath id="clip0_116_14">
<rect width="64" height="64" fill="white"/>
</clipPath>
</defs>
</svg>
