<svg width="64" height="64" viewBox="0 0 64 64" fill="none" xmlns="http://www.w3.org/2000/svg">
<g clip-path="url(#clip0_116_46)">
<path d="M25.7502 0.0750237C20.7127 0.662525 17.1627 1.82502 13.4377 4.10003C7.5502 7.68752 3.0377 13.5625 1.1502 20.125C0.312695 23.025 0.0751953 24.775 0.0751953 28C0.0751953 31.225 0.312695 32.975 1.1502 35.875C3.2627 43.225 8.5877 49.5875 15.5627 53.0875C18.7752 54.7 22.9377 55.775 26.6752 55.95C28.1752 56.0125 28.3502 56 28.7002 55.775C29.2502 55.425 29.4502 54.7875 29.2002 54.2125C28.9127 53.5 28.6502 53.4125 26.4377 53.2625C24.0877 53.1 22.0877 52.7125 19.9752 52C6.7127 47.575 -0.424805 33.2375 4.0002 19.975C8.4502 6.61253 22.9502 -0.512478 36.3127 4.08752C41.4002 5.83752 45.9752 9.38753 49.0252 13.925C51.6502 17.85 53.0127 22.0375 53.3127 27.15C53.4127 28.6625 53.5752 29 54.3002 29.25C54.8877 29.4375 55.5377 29.1625 55.8252 28.6125C56.0002 28.25 56.0252 27.975 55.9502 26.6C55.3627 15.35 48.2127 5.65002 37.6252 1.71252C34.7377 0.637524 31.9127 0.125023 28.5627 0.0625229C27.2627 0.0375252 25.9877 0.0500221 25.7502 0.0750237Z" fill="white"/>
<path d="M27.3002 8.61251C27.0877 8.75001 26.8502 9.03751 26.7627 9.26251C26.6627 9.55001 26.6252 12.35 26.6252 18.9C26.6252 29.175 26.5877 28.775 27.4377 29.1875C27.8252 29.3625 28.6127 29.375 34.5127 29.35L41.1502 29.3125L41.5127 28.9C42.0127 28.3375 42.0127 27.6625 41.5127 27.1L41.1502 26.6875L35.2627 26.65L29.3752 26.6125V18.1125C29.3752 8.80001 29.3877 8.96251 28.6377 8.57501C28.1377 8.31251 27.7752 8.32501 27.3002 8.61251Z" fill="white"/>
<path d="M47.7129 34.7625C45.5629 34.9875 43.0254 35.925 41.1254 37.1875C36.8129 40.0625 34.2129 45.5375 34.7379 50.6375C34.9129 52.2625 35.2254 53.5375 35.8004 54.9625C37.0379 57.975 39.6379 60.8125 42.5754 62.3375C49.7629 66.0875 58.7379 63.2 62.3879 55.9625C64.7379 51.325 64.4879 46.025 61.7254 41.525C60.8254 40.0625 58.5879 37.8125 57.1004 36.9C55.1879 35.725 53.1129 35.0125 50.8254 34.7625C49.5004 34.6125 49.1379 34.6125 47.7129 34.7625ZM51.5254 37.55C56.3629 38.475 59.9879 42.05 61.0879 46.9375C61.3504 48.1375 61.3504 50.5375 61.0754 51.8C60.0754 56.4125 56.4129 60.075 51.8004 61.075C50.5379 61.35 48.1379 61.35 46.9379 61.0875C42.6379 60.125 39.3254 57.1875 37.9629 53.1125C37.4879 51.6875 37.3379 50.4625 37.4129 48.725C37.6504 43.25 41.5004 38.7625 47.0129 37.5625C48.0629 37.3375 50.3754 37.325 51.5254 37.55Z" fill="white"/>
<path d="M44.8752 44.0875C44.2627 44.3125 43.8627 45.1375 44.0752 45.775C44.1252 45.925 44.9002 46.8125 45.8002 47.725L47.4252 49.3875L45.7752 51.0375C44.4127 52.4 44.1002 52.775 44.0502 53.15C43.9127 53.9875 44.5127 54.625 45.4627 54.625C45.8752 54.625 46.0627 54.475 47.6127 52.9375L49.3252 51.25L50.8127 52.7625C51.6377 53.5875 52.4627 54.35 52.6502 54.45C53.8877 55.1 55.1002 53.8875 54.4502 52.65C54.3502 52.4625 53.5877 51.6375 52.7627 50.8125L51.2502 49.325L52.9377 47.6125C54.4752 46.0625 54.6252 45.875 54.6252 45.4625C54.6252 44.5125 53.9877 43.9125 53.1502 44.05C52.7752 44.1 52.4002 44.4125 51.0377 45.775L49.3752 47.4375L47.8502 45.925C47.0002 45.0875 46.1752 44.3125 46.0002 44.2C45.7002 44 45.2377 43.95 44.8752 44.0875Z" fill="white"/>
</g>
<defs>
<clipPath id="clip0_116_46">
<rect width="64" height="64" fill="white"/>
</clipPath>
</defs>
</svg>
