<svg width="49" height="61" viewBox="0 0 49 61" fill="none" xmlns="http://www.w3.org/2000/svg">
<path d="M17.1472 0.202602C16.5158 0.512367 16.3013 1.11998 16.3013 2.64498V3.9317H14.0138C10.8923 3.94361 10.4158 4.07467 9.92728 5.09928L9.689 5.58775L5.8765 5.59967C2.44526 5.59967 2.01635 5.62349 1.58745 5.82603C1.05131 6.07623 0.527095 6.55279 0.241158 7.08892C0.0505327 7.42252 0.0386186 9.47173 0.00287648 33.0496C-0.00903757 50.8373 0.0147905 58.784 0.0981889 59.1176C0.264986 59.7014 0.967915 60.4996 1.58745 60.7736C2.04018 60.9881 2.90991 61 20.1257 61H38.1993L38.8308 60.6664C39.2954 60.4281 39.5694 60.1779 39.8315 59.749L40.189 59.1772L40.2485 56.4369L40.3081 53.7086L41.3208 53.4227C41.8808 53.2559 42.4646 53.0295 42.6314 52.9104C43.0364 52.6244 43.096 51.9334 42.7624 51.5998C42.4526 51.29 42.0237 51.29 41.2493 51.576C39.6409 52.1955 37.5083 52.1479 35.7689 51.4807C32.1946 50.0986 30.0978 46.2266 30.896 42.4737C31.2534 40.7819 32.4091 38.9352 33.7316 37.9344C36.2812 36.0043 39.3431 35.6946 42.1548 37.0647C42.9769 37.4698 43.3581 37.7557 44.1802 38.5897C45.2763 39.6977 45.7886 40.5197 46.1937 41.8422C46.8847 44.1297 46.4915 46.6197 45.0976 48.657C44.4661 49.5744 44.4304 49.7531 44.7878 50.2059C45.0261 50.5156 45.4669 50.6109 45.9077 50.4442C46.3962 50.2535 47.4804 48.2877 47.945 46.7389C48.3739 45.3449 48.4097 43.0932 48.0165 41.6873C47.5161 39.8526 46.2294 37.8153 44.8593 36.7073C43.6798 35.7303 41.9999 34.9201 40.5821 34.6104L40.2485 34.5508V21.1118V7.68463L39.9626 7.08892C39.6409 6.38599 39.4146 6.17154 38.6997 5.84986C38.1993 5.62349 37.9253 5.59967 34.3273 5.59967C30.5386 5.59967 30.479 5.59967 30.479 5.36139C30.479 4.96822 29.6569 4.16998 29.1089 4.05084C28.8468 3.99127 27.572 3.9317 26.2853 3.9317H23.9263V2.62115C23.9263 1.09616 23.7714 0.595765 23.1876 0.238344C22.8302 0.023891 22.5919 6.29425e-05 20.1734 6.29425e-05C17.9693 6.29425e-05 17.4927 0.0358051 17.1472 0.202602ZM22.1392 3.49088C22.1392 4.7776 22.1868 5.25416 22.306 5.43287C22.4609 5.64732 22.6872 5.65924 25.6181 5.71881L28.7515 5.77838L28.7872 7.76802L28.8111 9.76958H24.5339C20.2568 9.76958 20.2448 9.76958 19.947 10.0317C19.5181 10.4249 19.4824 10.9252 19.8755 11.3184C20.1019 11.5448 20.2687 11.5567 24.6888 11.5567C29.228 11.5567 29.2519 11.5567 29.6569 11.2827C29.8833 11.1397 30.1812 10.7823 30.3361 10.4844C30.5624 10.0317 30.5982 9.76958 30.5982 8.67349V7.38677H34.2915C37.83 7.38677 37.9968 7.39869 38.2232 7.62506C38.4614 7.86334 38.4614 8.01822 38.4614 21.1237V34.384L37.4011 34.527C33.0644 35.1108 29.6689 38.4586 29.0374 42.7715C28.4417 46.8342 30.6101 50.9207 34.3749 52.827C35.1255 53.1963 36.8292 53.6848 37.7823 53.792L38.4614 53.8635V56.2701C38.4614 58.5576 38.4495 58.6768 38.1993 58.9389L37.9491 59.2129H20.1495H2.34994L2.06401 58.915L1.76616 58.6291V33.3237V8.01822L2.01635 7.69654L2.25463 7.38677H6.00756H9.74857V8.86412C9.74857 10.1866 9.7724 10.3653 10.0226 10.7227C10.5468 11.509 10.7851 11.5567 13.9542 11.5567H16.7898L17.0757 11.2588C17.4093 10.9372 17.4331 10.7585 17.2425 10.3295C17.0161 9.82915 16.6825 9.76958 14.0376 9.76958H11.5357V7.7442V5.71881H14.5738C18.3982 5.71881 18.0884 5.90943 18.0884 3.51471V1.78717H20.1138H22.1392V3.49088Z" fill="#326BFF"/>
<path d="M7.06738 17.4541C6.90059 17.609 6.76953 17.883 6.76953 18.0498C6.76953 18.2166 6.90059 18.4906 7.06738 18.6455C7.34141 18.9314 7.4248 18.9434 8.79492 18.9434C10.165 18.9434 10.2484 18.9314 10.5225 18.6455C10.6893 18.4906 10.8203 18.2166 10.8203 18.0498C10.8203 17.883 10.6893 17.609 10.5225 17.4541C10.2484 17.1682 10.165 17.1563 8.79492 17.1563C7.4248 17.1563 7.34141 17.1682 7.06738 17.4541Z" fill="#326BFF"/>
<path d="M14.7769 17.2397C14.6935 17.2754 14.5506 17.4541 14.4433 17.6566C14.2885 17.9545 14.2885 18.0736 14.4076 18.3596C14.4791 18.5621 14.6459 18.7646 14.765 18.8242C14.8961 18.8957 18.4345 18.9434 23.9627 18.9434H32.9459L33.196 18.6693C33.5654 18.2762 33.5416 17.7162 33.1484 17.4064C32.8386 17.1563 32.7671 17.1563 23.8793 17.1682C18.9588 17.1682 14.8603 17.2039 14.7769 17.2397Z" fill="#326BFF"/>
<path d="M7.03179 22.5532C6.71011 22.8987 6.6982 23.3514 6.99605 23.7208C7.2105 23.9829 7.32964 24.0067 8.49722 24.0425C9.9269 24.0901 10.2486 24.0425 10.5822 23.7089C10.8919 23.3991 10.88 22.994 10.5703 22.5889C10.332 22.2792 10.3082 22.2792 8.80698 22.2792C7.3773 22.2792 7.27007 22.2911 7.03179 22.5532Z" fill="#326BFF"/>
<path d="M14.5963 22.4818C14.501 22.601 14.3699 22.8393 14.3342 23.018C14.2627 23.2801 14.3223 23.4111 14.6082 23.709L14.9776 24.0664L23.9607 24.0426C32.6103 24.0068 32.9678 23.9949 33.206 23.7805C33.5277 23.4826 33.5396 22.8393 33.218 22.5176C32.9797 22.2793 32.8248 22.2793 23.8893 22.2793C15.3707 22.2793 14.775 22.2912 14.5963 22.4818Z" fill="#326BFF"/>
<path d="M7.28207 27.4023C6.73402 27.6287 6.60297 28.3912 7.04379 28.8082C7.29399 29.0465 7.44887 29.0703 8.81898 29.0703C10.3082 29.0703 10.3321 29.0703 10.5703 28.7605C10.9754 28.2482 10.8801 27.7359 10.3321 27.4619C9.95082 27.2594 7.73481 27.2236 7.28207 27.4023Z" fill="#326BFF"/>
<path d="M14.6096 27.6406C14.3236 27.9266 14.2641 28.0695 14.3236 28.3316C14.3713 28.5104 14.5143 28.7486 14.6572 28.8559C14.8836 29.0584 15.5031 29.0703 23.9383 29.0703C32.8261 29.0703 32.981 29.0703 33.2193 28.832C33.541 28.5104 33.5291 27.867 33.2074 27.5691C32.9691 27.3547 32.6117 27.3428 23.9621 27.307L14.9789 27.2832L14.6096 27.6406Z" fill="#326BFF"/>
<path d="M7.06738 32.7041C6.90059 32.859 6.76953 33.133 6.76953 33.2998C6.76953 33.4666 6.90059 33.7406 7.06738 33.8955C7.34141 34.1814 7.4248 34.1934 8.79492 34.1934C10.165 34.1934 10.2484 34.1814 10.5225 33.8955C10.6893 33.7406 10.8203 33.4666 10.8203 33.2998C10.8203 33.133 10.6893 32.859 10.5225 32.7041C10.2484 32.4182 10.165 32.4063 8.79492 32.4063C7.4248 32.4063 7.34141 32.4182 7.06738 32.7041Z" fill="#326BFF"/>
<path d="M14.7769 32.4897C14.6935 32.5254 14.5506 32.7041 14.4433 32.9066C14.2885 33.2045 14.2885 33.3236 14.4076 33.6096C14.4791 33.8121 14.6459 34.0146 14.765 34.0742C14.8961 34.1457 18.4107 34.1934 23.9031 34.1934C32.7552 34.1934 32.8386 34.1934 33.1484 33.9432C33.5535 33.6215 33.5773 33.0258 33.1841 32.6684L32.9101 32.4063L23.915 32.4182C18.9707 32.4182 14.8603 32.4539 14.7769 32.4897Z" fill="#326BFF"/>
<path d="M7.00853 37.7676C6.74642 38.0297 6.69876 38.4824 6.88939 38.8398C7.0681 39.1734 7.65188 39.3164 8.79563 39.3164C10.0109 39.3164 10.4993 39.1734 10.69 38.7684C10.8806 38.3514 10.8568 38.2084 10.5708 37.8391C10.3325 37.5293 10.3087 37.5293 8.78372 37.5293C7.40169 37.5293 7.22298 37.5531 7.00853 37.7676Z" fill="#326BFF"/>
<path d="M14.5725 37.7676C14.2747 38.1012 14.2985 38.673 14.6202 38.9947L14.8823 39.2568H21.4708C27.7971 39.2568 28.0831 39.2449 28.3214 39.0305C28.643 38.7326 28.655 38.0893 28.3333 37.7676C28.095 37.5293 27.9401 37.5293 21.447 37.5293C14.93 37.5293 14.787 37.5293 14.5725 37.7676Z" fill="#326BFF"/>
<path d="M7.06893 42.8191C6.68768 43.2004 6.67577 43.7127 7.04511 44.0582C7.2953 44.2965 7.45018 44.3203 8.8203 44.3203C10.3096 44.3203 10.3334 44.3203 10.5717 44.0105C10.8814 43.6174 10.8933 43.2361 10.5955 42.8787C10.381 42.6047 10.2738 42.5928 8.86796 42.557C7.40253 42.5094 7.36678 42.5213 7.06893 42.8191Z" fill="#326BFF"/>
<path d="M14.6096 42.8906C14.3236 43.1885 14.2641 43.3195 14.3236 43.5816C14.3713 43.7604 14.5143 43.9986 14.6572 44.1059C14.8836 44.3084 15.3125 44.3203 20.0662 44.3203C25.082 44.3203 25.2488 44.3084 25.4752 44.082C25.8326 43.7246 25.7969 43.0932 25.4037 42.7834C25.0939 42.5332 24.9629 42.5332 20.0305 42.5332H14.967L14.6096 42.8906Z" fill="#326BFF"/>
<path d="M7.03174 47.9303C6.68624 48.2996 6.69815 48.7881 7.06749 49.1455C7.34151 49.4314 7.42491 49.4434 8.79502 49.4434C10.1651 49.4434 10.2485 49.4314 10.5226 49.1455C10.6894 48.9906 10.8204 48.7166 10.8204 48.5498C10.8204 48.383 10.6894 48.109 10.5226 47.9541C10.2485 47.6682 10.1651 47.6563 8.75928 47.6563C7.37725 47.6563 7.27002 47.6682 7.03174 47.9303Z" fill="#326BFF"/>
<path d="M14.7155 47.7873C14.1674 48.109 14.227 49.0383 14.8227 49.3123C15.0252 49.4076 16.6575 49.4434 20.1006 49.4434C24.9615 49.4434 25.0926 49.4314 25.4024 49.1932C25.7955 48.8834 25.8313 48.252 25.4738 47.8945C25.2475 47.6682 25.0807 47.6563 20.0887 47.6563C16.7051 47.6682 14.8584 47.7039 14.7155 47.7873Z" fill="#326BFF"/>
<path d="M41.6555 40.3768C41.5006 40.5079 40.5117 41.735 39.4633 43.1171C38.4268 44.4991 37.5332 45.6071 37.4855 45.5952C37.4498 45.5833 37.0447 45.0591 36.592 44.4395C35.6389 43.129 35.3291 42.8907 34.793 43.1171C34.5904 43.2005 34.376 43.4149 34.2926 43.6175C34.1615 43.9153 34.1854 44.0225 34.4475 44.4634C35.0551 45.476 36.8541 47.835 37.1281 47.9661C37.7357 48.2639 37.8906 48.1329 40.4879 44.7135C43.2281 41.1155 43.3353 40.913 42.6801 40.4007C42.2869 40.0909 42.0367 40.0909 41.6555 40.3768Z" fill="#326BFF"/>
</svg>
