<svg width="64" height="64" viewBox="0 0 64 64" fill="none" xmlns="http://www.w3.org/2000/svg">
<path d="M29.4 0.262482C28.7625 0.574982 28.325 1.12498 28.1375 1.81248C28.0625 2.08748 28 3.04998 28 3.94998V5.58748L27.4125 5.67498C26.3375 5.81248 25.65 6.12498 24.95 6.76248C23.3875 8.18748 23.2125 10.3875 24.5125 12.1125L25.0125 12.7625L24.6125 13.225C23.9375 13.9875 23.6875 14.6875 23.6875 15.8125C23.6875 16.95 23.9375 17.6375 24.625 18.4125L25.025 18.875L24.625 19.3375C23.9375 20.1125 23.6875 20.8 23.6875 21.9375C23.6875 22.7875 23.7375 23.05 24.0375 23.65C24.4625 24.5125 25.3125 25.3 26.15 25.5875C26.475 25.7125 26.75 25.85 26.75 25.9125C26.75 26.125 26.25 26.975 25.5625 27.9375C24.6625 29.2125 23.45 30.4375 21.5625 32.0375C18.0625 34.9875 15.825 37.7125 14.375 40.8C13.2125 43.25 12.75 45.2875 12.75 47.875C12.75 49.7125 12.9875 51.225 13.5 52.775C15.4125 58.4625 20.4125 62.5 27.0625 63.7C28.575 63.975 33.5 64.0875 35.4 63.8875C43.725 63.0125 49.8 57.8375 51.075 50.5C51.375 48.75 51.2625 45.7375 50.8375 44.1C49.6875 39.7125 47.0125 35.875 42.4375 32.0375C40.5625 30.475 39.1125 28.9625 38.2625 27.7C37.5375 26.625 37.1375 26.3625 36.625 26.65C36.4625 26.7375 36.2375 26.9625 36.1375 27.1375C35.975 27.4375 35.9875 27.5125 36.2375 28C36.9875 29.45 38.8 31.425 41.25 33.5C43.025 35 45.2 37.25 46.1625 38.6C47.4125 40.35 48.4125 42.4 49 44.5C49.425 45.9625 49.4875 48.9 49.1375 50.6C48.25 54.875 45.425 58.4 41.3125 60.375C40.0625 60.9625 38.2625 61.55 36.8125 61.8125C35.2875 62.1 30.475 62.2125 28.5875 62C21.7125 61.25 16.575 57.1875 15 51.25C14.6125 49.775 14.5125 46.825 14.8 45.4C15.25 43.1625 16.3375 40.7125 17.7875 38.6625C18.7 37.3625 20.8625 35.0875 22.4375 33.775C24.1 32.3625 24.975 31.5625 25.8625 30.575C26.8 29.5375 28.25 27.375 28.65 26.4125C28.825 25.975 29.0125 25.725 29.175 25.675C29.6875 25.5625 33.5625 24.9 33.6 24.9375C33.6625 25 32.7125 27.5875 32.35 28.3C30.8625 31.25 29.1125 33.325 25.4625 36.4625C21.8 39.625 19.9875 42.1125 19.1 45.2C18.6875 46.625 18.6875 49.1375 19.1 50.55C19.9375 53.4625 22.1 55.85 25.0125 57.075C27.025 57.925 28.95 58.25 32 58.25C37.0375 58.25 40.175 57.15 42.6625 54.5125C45.25 51.75 45.95 47.725 44.4875 44.025C43.4625 41.4375 41.325 38.7375 38.4375 36.375C37.825 35.8625 36.825 34.975 36.225 34.4125C35.05 33.2875 34.775 33.1875 34.2 33.6375C33.975 33.8125 33.875 34.0125 33.875 34.3C33.875 34.65 34.05 34.875 35.1 35.8875C35.7625 36.5375 36.625 37.325 37 37.625C39.5 39.6375 41.4375 41.9125 42.45 44.0375C44.775 48.9625 42.5125 54.0625 37.25 55.725C35.6125 56.25 35.025 56.3125 32 56.3125C28.975 56.3125 28.3875 56.25 26.75 55.725C24.4 54.9875 22.375 53.35 21.475 51.5C19.7 47.8375 20.775 43.7 24.5 39.8875C25.0125 39.3625 26.1125 38.3625 26.9375 37.675C29.7875 35.275 31.9375 32.825 33.3875 30.3125C34.3625 28.6 34.9625 27.1125 35.4875 25.05L35.625 24.5375L36.525 24.3875C38.25 24.0875 39.2875 23.3875 39.975 22.0625C40.25 21.5375 40.3 21.275 40.3 20.375C40.3125 19.225 40.125 18.7125 39.3375 17.7125L38.9625 17.2375L39.35 16.8375C40.225 15.9375 40.5875 14.3375 40.1875 13.1C40.075 12.7125 39.75 12.1125 39.4875 11.7625L38.9875 11.1125L39.3875 10.65C40.0625 9.88748 40.3125 9.18748 40.3125 8.06248C40.3125 7.24998 40.25 6.94998 40.0125 6.43748C39.375 5.17498 38.1125 4.28748 36.7375 4.16248L36.025 4.08748L35.975 2.94998C35.9125 1.57498 35.6625 0.987484 34.8875 0.437481L34.35 0.0624809L32.15 0.0249825C30.0875 -1.90735e-05 29.9 0.0124817 29.4 0.262482ZM33.925 2.07498C34.075 2.22498 34.125 2.53748 34.125 3.37498V4.47498L32.9125 4.68748C32.2375 4.81248 31.3125 4.97498 30.85 5.06248C30.3875 5.14998 29.975 5.18748 29.9375 5.14998C29.9 5.11248 29.875 4.44998 29.875 3.67498C29.875 2.56248 29.9125 2.22498 30.075 2.07498C30.225 1.91248 30.5875 1.87498 32 1.87498C33.4125 1.87498 33.775 1.91248 33.925 2.07498ZM37.375 6.28748C38.4875 6.87498 38.825 8.32498 38.075 9.31248C37.8875 9.54998 37.5875 9.82498 37.4 9.92498C37.2125 10.0125 36.05 10.275 34.8125 10.4875C33.575 10.7125 32.4375 10.975 32.2875 11.075C31.75 11.425 31.7625 12.2125 32.325 12.575C32.6 12.7625 32.775 12.75 34.575 12.4375C36.8625 12.0375 37.2 12.075 37.9125 12.8625C38.85 13.9 38.5875 15.4375 37.375 16.0625C36.875 16.325 27.775 17.9125 27.2625 17.825C25.7375 17.5875 25.0125 15.775 25.9375 14.55C26.35 14.0125 26.775 13.8125 27.95 13.6125C28.4875 13.525 28.925 13.375 29.1 13.2125C29.475 12.8625 29.4625 12.25 29.075 11.8875C28.8125 11.65 28.7 11.625 27.9875 11.6875C27.2875 11.7625 27.1125 11.7375 26.6375 11.475C25.6875 10.9625 25.2625 9.81248 25.675 8.83748C25.8625 8.36248 26.5 7.78748 26.95 7.67498C27.725 7.47498 35.9875 6.02498 36.3875 6.01248C36.6375 5.99998 37.075 6.12498 37.375 6.28748ZM37.025 18.375C37.6 18.5375 38.3375 19.3375 38.45 19.925C38.625 20.8625 38.1875 21.775 37.35 22.2C36.975 22.4 28.15 24 27.4625 24C26.825 24 26.1 23.5125 25.7875 22.875C25.4375 22.1875 25.425 21.6375 25.75 21C26.175 20.1625 26.525 20.0125 29.1 19.55C37.3625 18.0625 36.3875 18.2 37.025 18.375Z" fill="white"/>
</svg>
