<svg width="64" height="64" viewBox="0 0 64 64" fill="none" xmlns="http://www.w3.org/2000/svg">
<g clip-path="url(#clip0_536_120)">
<path d="M21.1375 0.224999C20.9 0.337499 20.5875 0.599999 20.45 0.787499C20.1875 1.1375 20.1875 1.2875 20.125 10.6L20.0625 20.0625L10.6 20.125C1.2875 20.1875 1.1375 20.1875 0.7875 20.45C0.6 20.5875 0.3375 20.9 0.225 21.1375C0.0125 21.5375 0 22.3125 0 32C0 41.6875 0.0125 42.4625 0.225 42.8625C0.3375 43.1 0.6 43.4125 0.7875 43.55C1.1375 43.8125 1.2875 43.8125 10.6 43.875L20.0625 43.9375L20.125 53.4C20.1875 62.7125 20.1875 62.8625 20.45 63.2125C20.5875 63.4 20.9 63.6625 21.1375 63.775C21.5375 63.9875 22.3125 64 32 64C41.6875 64 42.4625 63.9875 42.8625 63.775C43.1 63.6625 43.4125 63.4 43.55 63.2125C43.8125 62.8625 43.8125 62.7125 43.875 53.4L43.9375 43.9375L53.4 43.875C62.7125 43.8125 62.8625 43.8125 63.2125 43.55C63.4 43.4125 63.6625 43.1 63.775 42.8625C63.9875 42.4625 64 41.6875 64 32C64 22.3125 63.9875 21.5375 63.775 21.1375C63.6625 20.9 63.4 20.5875 63.2125 20.45C62.8625 20.1875 62.7125 20.1875 53.4 20.125L43.9375 20.0625L43.875 10.6C43.8125 1.2875 43.8125 1.1375 43.55 0.787499C43.4125 0.599999 43.1 0.337499 42.8625 0.224999C42.4625 0.012499 41.6875 -9.53674e-07 32 -9.53674e-07C22.3125 -9.53674e-07 21.5375 0.012499 21.1375 0.224999ZM40.125 12.975V22.2L40.4125 22.75C40.6125 23.1625 40.8375 23.3875 41.25 23.5875L41.8 23.875H51.025H60.25V32V40.125H51.025H41.8L41.25 40.4C40.8375 40.6125 40.6125 40.8375 40.4 41.25L40.125 41.8V51.025V60.25H32H23.875V51.025V41.8L23.6 41.25C23.3875 40.8375 23.1625 40.6125 22.75 40.4L22.2 40.125H12.975H3.75V32V23.875H12.975H22.2L22.75 23.5875C23.1625 23.3875 23.3875 23.1625 23.6 22.75L23.875 22.2V12.975V3.75H32H40.125V12.975Z" fill="#326BFF"/>
</g>
<defs>
<clipPath id="clip0_536_120">
<rect width="64" height="64" fill="white"/>
</clipPath>
</defs>
</svg>
