<svg width="64" height="64" viewBox="0 0 64 64" fill="none" xmlns="http://www.w3.org/2000/svg">
<path d="M20.937 0.1625C19.687 0.574999 18.7995 1.4125 18.437 2.5C18.0995 3.5 18.2245 4.8125 18.712 5.6125L19.0995 6.225L18.187 6.85C16.7495 7.85 15.812 9.3625 15.487 11.175C14.9495 14.3 16.8495 17.3625 20.012 18.45C20.4995 18.6125 21.037 18.6875 21.937 18.6875C22.837 18.6875 23.3745 18.6125 23.862 18.45C27.0245 17.3625 28.9245 14.3 28.387 11.175C28.062 9.3625 27.1245 7.85 25.687 6.85L24.7745 6.225L25.162 5.6125C25.6495 4.8125 25.7745 3.5 25.437 2.4875C24.862 0.75 22.637 -0.4 20.937 0.1625ZM22.7495 2.1C24.087 2.7625 24.087 4.7375 22.7495 5.4C21.5245 6.025 20.1245 5.1375 20.1245 3.75C20.1245 2.7375 20.962 1.875 21.937 1.875C22.1495 1.875 22.512 1.975 22.7495 2.1ZM23.9495 8C24.387 8.2125 24.7495 8.4375 24.7495 8.4875C24.7495 8.6125 23.7745 9.0375 23.062 9.2375C22.0495 9.5125 20.987 9.3875 19.7245 8.85C19.387 8.7125 19.1245 8.55 19.1245 8.5C19.1245 8.3625 20.287 7.7625 20.8245 7.6375C21.7245 7.4 23.0745 7.5625 23.9495 8ZM18.4745 10.3C19.3995 10.9125 20.437 11.175 21.937 11.175C23.437 11.175 24.4745 10.9125 25.3995 10.3C25.662 10.1375 25.9245 10 25.987 10C26.1745 10 26.4995 10.9625 26.587 11.75C26.7245 13.075 26.2495 14.4 25.262 15.4125C23.412 17.3375 20.462 17.3375 18.612 15.4125C17.6245 14.4 17.1495 13.075 17.287 11.75C17.3745 10.9625 17.6995 10 17.887 10C17.9495 10 18.212 10.1375 18.4745 10.3Z" fill="white"/>
<path d="M34.7502 0.075058C32.2377 0.562557 30.2502 2.32506 29.5502 4.68756C29.2502 5.68756 29.2502 7.43756 29.5502 8.43756C29.9502 9.77506 30.4502 10.4626 32.7127 12.7626C34.8502 14.9251 34.8752 14.9626 34.8752 15.5126C34.8752 15.8126 34.9502 16.1626 35.0502 16.2751C35.4252 16.7626 36.2002 16.7751 36.5752 16.2751C36.6627 16.1626 36.7502 15.8126 36.7502 15.5126C36.7502 14.9626 36.7752 14.9376 38.9752 12.7001C40.7377 10.9001 41.2752 10.2751 41.6002 9.62506C42.0252 8.76256 42.3752 7.40006 42.3752 6.56256C42.3752 6.28756 42.2877 5.66256 42.1877 5.18756C41.7127 2.92506 40.1127 1.12506 37.9002 0.362558C37.2002 0.112558 35.3877 -0.049942 34.7502 0.075058ZM36.9377 2.05006C37.8502 2.28756 38.3627 2.57506 39.0377 3.23756C40.5877 4.71256 40.9127 6.85006 39.8877 8.85006C39.5877 9.42506 36.0627 13.1251 35.8127 13.1251C35.5377 13.1251 32.0252 9.41256 31.7002 8.78756C31.2252 7.83756 31.0627 6.76256 31.2377 5.77506C31.4252 4.73756 31.7627 4.08756 32.4877 3.33756C33.6627 2.10006 35.3377 1.61256 36.9377 2.05006Z" fill="white"/>
<path d="M48.6248 5.70002C46.7498 6.06252 45.0123 7.27502 44.0873 8.85003C43.2748 10.2375 43.2123 10.5375 43.1498 13.5625C43.0873 17.3375 43.2873 18.2875 44.5498 19.9625L45.2248 20.8625L44.8123 21.125C44.2748 21.4625 43.6748 22.15 43.4373 22.6875L43.2623 23.125H40.0123H36.7498V21.2C36.7498 19.45 36.7248 19.25 36.4873 18.95C36.2998 18.7125 36.1123 18.625 35.8123 18.625C35.5123 18.625 35.3248 18.7125 35.1373 18.95C34.8998 19.25 34.8748 19.45 34.8748 21.2V23.125H34.2373C33.2498 23.125 32.6248 23.3625 31.9998 24C30.8373 25.1625 30.8373 26.7125 31.9998 27.875C32.6248 28.5125 33.2498 28.75 34.2373 28.75H34.8748V32.8125V36.8875L35.1873 37.1875C35.5748 37.5875 36.0498 37.5875 36.4373 37.1875L36.7498 36.8875V32.8125V28.75H37.3748C37.8873 28.75 38.0748 28.6875 38.3123 28.4375C38.4873 28.275 38.6248 27.9875 38.6248 27.8125C38.6248 27.6375 38.4873 27.35 38.3123 27.1875C38.0748 26.9375 37.8873 26.875 37.3748 26.875H36.7498V25.9375V25H39.9373H43.1123L43.1498 31.4625C43.1873 37.4625 43.2123 37.9875 43.4373 38.5625C43.7123 39.2875 44.2748 40.2875 44.6998 40.7875L44.9998 41.15L44.9748 51.15L44.9373 61.1625L43.2498 61.7375C41.8623 62.2125 41.5373 62.375 41.3873 62.65C41.1373 63.0875 41.3123 63.6125 41.7748 63.875C42.0998 64.05 42.2373 64.025 44.3123 63.3375C45.8623 62.8125 46.5498 62.525 46.6873 62.3375C46.8498 62.1 46.8748 60.8 46.8748 52.2875V42.5125L47.5998 42.775C48.1623 42.9875 48.5998 43.0375 49.6873 43.0375C50.7748 43.0375 51.2123 42.9875 51.7873 42.775L52.4998 42.5125V52.2875C52.4998 60.8 52.5248 62.1 52.6873 62.3375C52.8248 62.525 53.5123 62.8125 55.0623 63.3375C57.1373 64.025 57.2748 64.05 57.5998 63.875C58.0623 63.6125 58.2373 63.0875 57.9873 62.65C57.8373 62.375 57.5123 62.2125 56.1248 61.7375L54.4373 61.1625L54.3998 51.15L54.3748 41.1375L54.7373 40.725C55.2248 40.1625 55.7498 39.1125 55.9998 38.2125L56.2123 37.45L57.0123 37.25C58.9873 36.775 60.8123 35.3375 61.7248 33.55C62.1123 32.7875 62.4998 31.175 62.4998 30.3125C62.4998 29.45 62.1123 27.8375 61.7248 27.075C60.8123 25.275 58.8873 23.775 56.9248 23.3375C56.2498 23.1875 56.1748 23.125 55.8998 22.6125C55.5623 21.975 55.0998 21.4625 54.5373 21.1125L54.1498 20.8625L54.8248 19.9625C56.0873 18.2875 56.2873 17.3375 56.2248 13.5625C56.1623 10.5375 56.0998 10.2375 55.2873 8.85003C54.5248 7.55002 53.1873 6.47503 51.6873 5.95002C51.0623 5.73752 49.2248 5.58752 48.6248 5.70002ZM50.8123 7.67502C51.7248 7.91253 52.2373 8.20002 52.9123 8.86252C53.7873 9.70002 54.3748 10.9875 54.3748 12.0875V12.5H53.3998C52.5248 12.5 52.3873 12.4625 52.1373 12.2C51.9748 12.0375 51.5623 11.7625 51.2123 11.6125C49.9498 11.05 48.0498 11.325 47.2373 12.2C46.9873 12.4625 46.8498 12.5 45.9748 12.5H44.9998V12.0875C44.9998 11.025 45.5248 9.82502 46.3623 8.96252C47.5373 7.72503 49.2123 7.23752 50.8123 7.67502ZM50.3248 13.25C50.5123 13.325 50.9123 13.6125 51.2123 13.875L51.7498 14.375H53.0623H54.3748V15.4C54.3748 16.4875 54.1873 17.3875 53.8123 18.125C53.5123 18.725 52.5373 19.7125 51.9373 20.025C49.9998 21.0375 47.8248 20.7 46.3623 19.1625C45.3748 18.15 44.9998 17.1125 44.9998 15.4V14.375H46.3123H47.6248L48.1623 13.875C48.9623 13.15 49.5748 12.975 50.3248 13.25ZM53.5123 22.6875C53.7123 22.8 53.9998 23.0625 54.1248 23.2875C54.3623 23.675 54.3748 23.9625 54.3748 29.65V35.625H49.6873H44.9998V29.6875C44.9998 23.125 44.9873 23.2375 45.7873 22.75C46.1623 22.5125 46.4373 22.5 49.6623 22.5C52.5498 22.5 53.1998 22.5375 53.5123 22.6875ZM34.8748 25.9375V26.875H34.2498C33.7373 26.875 33.5498 26.8125 33.3123 26.5625C33.1373 26.4 32.9998 26.1125 32.9998 25.9375C32.9998 25.7625 33.1373 25.475 33.3123 25.3125C33.5498 25.0625 33.7373 25 34.2498 25H34.8748V25.9375ZM57.6748 25.5875C58.0123 25.7625 58.5873 26.175 58.9373 26.5125C61.1373 28.5875 61.1373 32.0375 58.9373 34.1125C58.2623 34.75 57.3498 35.2875 56.6623 35.4375L56.2498 35.525V30.3125V25.1L56.6623 25.1875C56.8748 25.2375 57.3373 25.425 57.6748 25.5875ZM54.2498 37.65C54.2498 38.0125 53.6123 39.15 53.1123 39.6875C51.2123 41.75 48.1623 41.75 46.2623 39.6875C45.7623 39.15 45.1248 38.0125 45.1248 37.65C45.1248 37.5375 46.1248 37.5 49.6873 37.5C53.2498 37.5 54.2498 37.5375 54.2498 37.65Z" fill="white"/>
<path d="M5.36205 6.92506C4.47455 7.11256 3.72455 7.60006 3.21205 8.32506C2.66205 9.11256 2.52455 9.55006 2.51205 10.5626C2.49955 11.7876 2.83705 12.4626 4.17455 13.8501C5.18705 14.9001 5.24955 15.0001 5.24955 15.5126C5.24955 15.8126 5.32455 16.1626 5.42455 16.2751C5.79955 16.7626 6.57455 16.7751 6.94955 16.2751C7.03705 16.1626 7.12455 15.8126 7.12455 15.5126C7.12455 15.0001 7.18705 14.9001 8.19955 13.8501C9.49955 12.4876 9.87455 11.7876 9.87455 10.6126C9.87455 9.65006 9.72455 9.13756 9.22455 8.40006C8.37455 7.16256 6.89955 6.58756 5.36205 6.92506ZM7.16205 8.96256C7.97455 9.37506 8.28705 10.8251 7.72455 11.5751C7.28705 12.1626 6.33705 13.1251 6.18705 13.1251C6.03705 13.1251 5.08705 12.1626 4.64955 11.5751C4.17455 10.9501 4.32455 9.62506 4.92455 9.13756C5.51205 8.65006 6.41205 8.57506 7.16205 8.96256Z" fill="white"/>
<path d="M5.5123 18.95C5.2748 19.25 5.2498 19.45 5.2498 21.2V23.125H4.6123C3.6248 23.125 2.9998 23.3625 2.3748 24C1.2123 25.1625 1.2123 26.7125 2.3748 27.875C2.9998 28.5125 3.6248 28.75 4.6123 28.75H5.2498V32.8125V36.8875L5.5623 37.1875C5.7248 37.3625 6.0123 37.5 6.1873 37.5C6.3623 37.5 6.6498 37.3625 6.8123 37.1875L7.1248 36.8875V32.8125V28.75H7.7498C8.2623 28.75 8.4498 28.6875 8.6873 28.4375C9.0873 28.05 9.0873 27.575 8.6873 27.1875C8.4498 26.9375 8.2623 26.875 7.7498 26.875H7.1248V25.9375V25H10.3123H13.4998V28.725V32.4375L13.1623 32.9375C12.6748 33.65 12.1748 34.725 11.9248 35.575C11.7498 36.1875 11.6998 37.025 11.6623 40.3375L11.5998 44.3625L11.9248 44.6875C12.2248 44.9875 12.2998 45 13.8123 45H15.3748L15.3498 53.075L15.3123 61.1625L13.6248 61.7375C12.2373 62.2125 11.9123 62.375 11.7623 62.65C11.5123 63.0875 11.6873 63.6125 12.1498 63.875C12.4748 64.05 12.6123 64.025 14.6873 63.3375C16.2373 62.8125 16.9248 62.525 17.0623 62.3375C17.2248 62.1 17.2498 60.9375 17.2498 53.5375V45H20.0623H22.8748L22.8498 53.075L22.8123 61.1625L21.1248 61.7375C19.7373 62.2125 19.4123 62.375 19.2623 62.65C19.0123 63.0875 19.1873 63.6125 19.6498 63.875C19.9748 64.05 20.1123 64.025 22.1873 63.3375C23.7373 62.8125 24.4248 62.525 24.5623 62.3375C24.7248 62.1 24.7498 60.9375 24.7498 53.5375V45H26.3123C27.8248 45 27.8998 44.9875 28.1998 44.6875L28.5248 44.3625L28.4623 40.3375C28.4248 37.025 28.3748 36.1875 28.1998 35.575C27.9498 34.725 27.4498 33.65 26.9623 32.9375L26.6248 32.4375V28.05C26.6248 22.8625 26.5998 22.6875 25.5748 21.675C24.5873 20.675 24.2998 20.625 19.9998 20.625C15.9498 20.625 15.6498 20.675 14.6998 21.5125C14.3998 21.7875 14.0248 22.25 13.8748 22.5625L13.5998 23.125H10.3623H7.1248V21.2C7.1248 19.45 7.0998 19.25 6.8623 18.95C6.6748 18.7125 6.4873 18.625 6.1873 18.625C5.8873 18.625 5.6998 18.7125 5.5123 18.95ZM23.8873 22.6875C24.0873 22.8 24.3748 23.0625 24.4998 23.2875C24.7373 23.6625 24.7498 23.9375 24.7498 27.775V31.875H23.8123H22.8748V28.4375V24.9875L22.5623 24.6875C22.3998 24.5125 22.1123 24.375 21.9373 24.375C21.7623 24.375 21.4748 24.5125 21.3123 24.6875L20.9998 24.9875V28.4375V31.875H18.1873H15.3748V27.8125C15.3748 23.3125 15.3873 23.2125 16.1623 22.75C16.5373 22.5125 16.8123 22.5 20.0373 22.5C22.9248 22.5 23.5748 22.5375 23.8873 22.6875ZM5.2498 25.9375V26.875H4.6248C4.1123 26.875 3.9248 26.8125 3.6873 26.5625C3.5123 26.4 3.3748 26.1125 3.3748 25.9375C3.3748 25.7625 3.5123 25.475 3.6873 25.3125C3.9248 25.0625 4.1123 25 4.6248 25H5.2498V25.9375ZM20.9998 37.1875V40.6375L21.3123 40.9375C21.6998 41.3375 22.1748 41.3375 22.5623 40.9375L22.8748 40.6375V37.1875V33.75H24.0623H25.2498L25.5748 34.25C25.7498 34.525 26.0498 35.125 26.2248 35.5875C26.5373 36.4125 26.5498 36.55 26.5998 39.775L26.6498 43.125H20.0623H13.4748L13.5248 39.775C13.5748 36.55 13.5873 36.4125 13.8998 35.5875C14.0748 35.125 14.3748 34.525 14.5498 34.25L14.8748 33.75H17.9373H20.9998V37.1875Z" fill="white"/>
</svg>
