<svg width="250" height="250" viewBox="0 0 250 250" fill="none" xmlns="http://www.w3.org/2000/svg">
<path d="M125 247.5C192.655 247.5 247.5 192.655 247.5 125C247.5 57.3451 192.655 2.5 125 2.5C57.3451 2.5 2.5 57.3451 2.5 125C2.5 192.655 57.3451 247.5 125 247.5Z" stroke="#2F69C2" stroke-width="3"/>
<path d="M46.671 196.331L37.8756 203.667L36.3944 201.891L39.8561 199.003L36.9538 195.524L33.4921 198.411L32.0109 196.635L40.8063 189.299L42.2875 191.075L38.4417 194.283L41.344 197.762L45.1898 194.555L46.671 196.331Z" fill="#2F69C2"/>
<path d="M26.8838 175.236C26.2224 175.543 25.5066 175.677 24.7365 175.638C23.9663 175.6 23.2801 175.358 22.6778 174.914C22.0733 174.466 21.6 173.873 21.258 173.136C20.7295 171.997 20.6672 170.892 21.0712 169.82C21.4705 168.751 22.2347 167.954 23.3637 167.43C24.5023 166.901 25.6181 166.831 26.7114 167.22C27.7977 167.605 28.5996 168.356 29.1171 169.471C29.4373 170.16 29.5873 170.892 29.5672 171.665C29.5448 172.433 29.3093 173.12 28.8607 173.724C28.4073 174.331 27.7483 174.835 26.8838 175.236ZM26.0428 173.146C26.7892 172.799 27.2786 172.357 27.511 171.818C27.7433 171.28 27.7389 170.751 27.4977 170.231C27.2565 169.711 26.8563 169.369 26.2972 169.203C25.7359 169.033 25.0773 169.124 24.3214 169.475C23.5845 169.817 23.0998 170.257 22.8674 170.795C22.6329 171.329 22.6362 171.856 22.8774 172.376C23.1186 172.895 23.5199 173.24 24.0812 173.41C24.6425 173.58 25.2964 173.492 26.0428 173.146Z" fill="#2F69C2"/>
<path d="M21.5341 147.943L10.3279 150.309L9.87448 148.161L21.0806 145.795L21.5341 147.943Z" fill="#2F69C2"/>
<path d="M9.61022 126.863L7.57901 126.876L7.56407 124.681L9.59527 124.667L9.61022 126.863ZM19.0319 126.798L10.7352 126.855L10.7202 124.66L19.0169 124.603L19.0319 126.798Z" fill="#2F69C2"/>
<path d="M18.3607 105.813L18.5041 103.589C18.9414 103.589 19.3001 103.473 19.5801 103.241C19.8551 103.008 20.0478 102.64 20.1582 102.136C20.2797 101.581 20.2694 101.142 20.1272 100.817C20.026 100.598 19.8558 100.462 19.6167 100.41C19.4539 100.374 19.3079 100.395 19.1788 100.474C19.0536 100.558 18.9071 100.777 18.7392 101.129C17.9786 102.775 17.3899 103.795 16.973 104.189C16.395 104.734 15.7168 104.922 14.9384 104.751C14.2363 104.597 13.7069 104.191 13.3502 103.531C12.9934 102.872 12.9427 101.96 13.198 100.795C13.4411 99.6855 13.8023 98.9009 14.2817 98.4408C14.7611 97.9806 15.3767 97.7263 16.1284 97.6778L16.0592 99.782C15.7248 99.7994 15.4469 99.9118 15.2255 100.119C15.0053 100.322 14.8461 100.647 14.7479 101.094C14.6242 101.659 14.6144 102.081 14.7186 102.359C14.7949 102.547 14.922 102.66 15.1001 102.699C15.2527 102.732 15.3981 102.69 15.5361 102.571C15.7209 102.409 16.068 101.786 16.5772 100.703C17.0875 99.6155 17.5805 98.8864 18.0562 98.5161C18.5359 98.152 19.1166 98.0446 19.7983 98.194C20.5411 98.3568 21.1116 98.807 21.5098 99.5448C21.908 100.283 21.9738 101.259 21.7074 102.475C21.4655 103.579 21.0498 104.405 20.4605 104.953C19.8724 105.496 19.1724 105.783 18.3607 105.813Z" fill="#2F69C2"/>
<path d="M22.7184 74.0134L24.2999 74.7626L23.6577 76.1182L26.6794 77.5498C27.2913 77.8397 27.6546 77.9974 27.7693 78.0229C27.8815 78.0415 27.9918 78.0217 28.1 77.9635C28.2105 77.9006 28.297 77.8032 28.3594 77.6714C28.4464 77.4879 28.5089 77.1918 28.5468 76.7833L30.1662 77.3431C30.1453 77.898 29.9967 78.4673 29.7202 79.0509C29.5507 79.4086 29.3391 79.7032 29.0854 79.9345C28.827 80.1637 28.5713 80.3019 28.3184 80.3492C28.063 80.3896 27.7606 80.3587 27.4113 80.2566C27.1606 80.1897 26.6846 79.9901 25.9833 79.6579L22.7144 78.1092L22.2829 79.0199L20.7014 78.2707L21.1329 77.3599L19.6432 76.6541L19.4286 74.1146L22.0762 75.3689L22.7184 74.0134Z" fill="#2F69C2"/>
<path d="M32.3323 56.2248L30.7127 54.9989L32.0375 53.2484L33.6572 54.4743L32.3323 56.2248ZM39.8451 61.9107L33.2294 56.9037L34.5542 55.1532L41.1699 60.1602L39.8451 61.9107Z" fill="#2F69C2"/>
<path d="M55.9663 37.0341L54.5638 38.7278C54.2294 38.4444 53.8921 38.303 53.552 38.3036C53.2159 38.3009 52.8906 38.4322 52.576 38.6974C52.1579 39.05 51.946 39.4773 51.9403 39.9795C51.9352 40.4744 52.218 41.0602 52.7888 41.7371C53.4234 42.4896 53.9971 42.9154 54.5098 43.0144C55.0265 43.1101 55.4979 42.9783 55.9239 42.6191C56.2424 42.3505 56.4277 42.041 56.4797 41.6906C56.5283 41.3362 56.408 40.9027 56.119 40.3903L58.0041 39.2809C58.4708 40.1818 58.6241 41.0302 58.4641 41.826C58.304 42.6219 57.8158 43.3639 56.9996 44.0522C56.0719 44.8346 55.0845 45.1664 54.0375 45.0478C52.9945 44.9259 52.0365 44.3473 51.1635 43.3121C50.2805 42.2649 49.8706 41.2173 49.9338 40.1693C49.9937 39.1173 50.4954 38.1934 51.4391 37.3977C52.2115 36.7463 52.9657 36.3964 53.7016 36.3481C54.4382 36.2925 55.1931 36.5211 55.9663 37.0341Z" fill="#2F69C2"/>
<path d="M93.9359 15.0842L95.9098 14.6393L96.1589 15.7444C96.6716 14.7266 97.4158 14.1078 98.3913 13.8879C98.9095 13.7711 99.3832 13.7765 99.8124 13.904C100.242 14.0315 100.627 14.2838 100.968 14.6607C101.226 14.1486 101.537 13.7396 101.901 13.4334C102.264 13.1273 102.68 12.9215 103.147 12.8162C103.741 12.6822 104.272 12.6908 104.738 12.8419C105.204 12.988 105.591 13.2718 105.899 13.6935C106.125 14.0058 106.324 14.5481 106.498 15.3204L107.665 20.4953L105.523 20.9779L104.48 16.3517C104.299 15.549 104.109 15.0473 103.909 14.8468C103.642 14.5866 103.303 14.5029 102.891 14.5956C102.592 14.6632 102.33 14.8182 102.107 15.0606C101.884 15.3031 101.754 15.6153 101.718 15.9973C101.68 16.3742 101.747 16.9438 101.919 17.7059L102.794 21.5928L100.653 22.0754L99.6532 17.6398C99.4758 16.8522 99.3232 16.3527 99.1954 16.1413C99.0677 15.9298 98.9099 15.7865 98.7221 15.7114C98.5394 15.6351 98.3109 15.6279 98.0365 15.6897C97.7063 15.7641 97.4291 15.92 97.2049 16.1574C96.9808 16.3948 96.8481 16.6943 96.8068 17.056C96.7706 17.4165 96.8401 17.9854 97.0153 18.7628L97.9015 22.6955L95.7599 23.1781L93.9359 15.0842Z" fill="#2F69C2"/>
<path d="M126.95 9.61177L127.003 7.58122L129.198 7.63868L129.145 9.66924L126.95 9.61177ZM126.704 19.0304L126.921 10.7364L129.115 10.7939L128.898 19.0879L126.704 19.0304Z" fill="#2F69C2"/>
<path d="M155.178 23.4374L153.053 22.8881L154.112 18.7884C154.336 17.9211 154.436 17.3496 154.41 17.0741C154.386 16.7934 154.288 16.5558 154.118 16.3612C153.953 16.1678 153.727 16.034 153.439 15.9598C153.071 15.8646 152.715 15.8801 152.37 16.0062C152.026 16.1324 151.755 16.3475 151.558 16.6516C151.366 16.9571 151.154 17.5586 150.922 18.4562L149.982 22.0945L147.856 21.5452L149.932 13.5122L151.906 14.0224L151.602 15.2024C152.537 14.4759 153.537 14.2501 154.601 14.5251C155.07 14.6463 155.476 14.8428 155.82 15.1146C156.165 15.3813 156.403 15.6712 156.531 15.9843C156.665 16.2986 156.727 16.632 156.717 16.9843C156.712 17.338 156.629 17.8249 156.468 18.4452L155.178 23.4374Z" fill="#2F69C2"/>
<path d="M179.598 34.2014L177.814 33.215L178.403 32.1483C177.878 32.3994 177.355 32.5153 176.836 32.4962C176.324 32.4751 175.863 32.3511 175.453 32.1244C174.619 31.6633 174.088 30.9327 173.861 29.9326C173.642 28.9304 173.864 27.8276 174.53 26.6242C175.21 25.3934 176.016 24.6189 176.947 24.3007C177.882 23.978 178.791 24.061 179.675 24.5498C180.487 24.9982 181.002 25.7236 181.222 26.7257L183.217 23.1155L185.139 24.1774L179.598 34.2014ZM176.564 27.5789C176.135 28.3538 175.933 28.9737 175.955 29.4386C175.988 30.1113 176.283 30.6014 176.839 30.9088C177.281 31.1532 177.76 31.1741 178.277 30.9717C178.796 30.7646 179.262 30.2873 179.675 29.5398C180.136 28.7056 180.317 28.023 180.218 27.492C180.121 26.9565 179.838 26.559 179.369 26.2995C178.913 26.0476 178.429 26.0183 177.918 26.2116C177.413 26.4029 176.962 26.8587 176.564 27.5789Z" fill="#2F69C2"/>
<path d="M218.977 59.9636L217.558 60.988L216.68 59.7719L213.969 61.7293C213.42 62.1256 213.106 62.3679 213.029 62.4561C212.958 62.5454 212.923 62.6516 212.921 62.7745C212.923 62.9016 212.967 63.0243 213.052 63.1425C213.171 63.3072 213.4 63.5047 213.74 63.7348L212.469 64.8838C211.993 64.598 211.566 64.1933 211.188 63.6697C210.956 63.3488 210.8 63.0214 210.72 62.6876C210.643 62.3508 210.645 62.0601 210.726 61.8157C210.814 61.5725 210.987 61.3225 211.244 61.0656C211.424 60.8782 211.828 60.5574 212.457 60.1031L215.39 57.9857L214.8 57.1686L216.219 56.1442L216.809 56.9613L218.145 55.9963L220.474 57.0325L218.099 58.7475L218.977 59.9636Z" fill="#2F69C2"/>
<path d="M232.728 78.4618L228.841 80.0808C229.877 80.4163 230.585 81.0384 230.964 81.9471C231.158 82.4135 231.246 82.8702 231.23 83.3174C231.213 83.7645 231.109 84.1378 230.917 84.4375C230.728 84.7419 230.484 84.9959 230.185 85.1994C229.888 85.4077 229.396 85.655 228.709 85.9413L224.216 87.8125L223.372 85.786L227.418 84.101C228.22 83.7666 228.714 83.5158 228.898 83.3488C229.083 83.1818 229.196 82.9737 229.239 82.7245C229.289 82.4781 229.253 82.2082 229.131 81.915C228.99 81.5784 228.784 81.3119 228.51 81.1156C228.236 80.9192 227.908 80.8276 227.524 80.8408C227.147 80.8567 226.636 80.9989 225.992 81.2672L222.155 82.8651L221.311 80.8385L231.884 76.4353L232.728 78.4618Z" fill="#2F69C2"/>
<path d="M232.601 110.617L232.557 112.835C231.723 112.674 231.052 112.323 230.546 111.782C230.045 111.245 229.729 110.526 229.595 109.624C229.385 108.197 229.695 107.072 230.526 106.249C231.194 105.597 232.097 105.188 233.235 105.019C234.595 104.819 235.712 105.017 236.585 105.615C237.463 106.212 237.982 107.054 238.142 108.141C238.323 109.362 238.06 110.385 237.356 111.21C236.656 112.035 235.472 112.555 233.803 112.77L233 107.329C232.358 107.439 231.881 107.689 231.57 108.077C231.264 108.464 231.148 108.908 231.222 109.408C231.272 109.748 231.407 110.02 231.627 110.224C231.846 110.429 232.171 110.56 232.601 110.617ZM234.814 110.417C235.44 110.309 235.893 110.076 236.172 109.719C236.456 109.361 236.565 108.961 236.5 108.518C236.43 108.044 236.2 107.677 235.809 107.419C235.418 107.161 234.927 107.078 234.335 107.171L234.814 110.417Z" fill="#2F69C2"/>
<path d="M230.563 134.053L230.748 131.865L239.015 132.564L238.843 134.596L237.668 134.496C238.194 134.891 238.533 135.233 238.687 135.523C238.839 135.818 238.901 136.142 238.871 136.495C238.829 136.993 238.651 137.462 238.337 137.901L236.487 137.062C236.757 136.714 236.905 136.381 236.932 136.065C236.958 135.759 236.894 135.492 236.741 135.265C236.592 135.038 236.303 134.843 235.872 134.682C235.441 134.525 234.523 134.387 233.116 134.268L230.563 134.053Z" fill="#2F69C2"/>
<path d="M231.687 158.039L232.646 156.256C233.339 156.718 233.784 157.269 233.981 157.908C234.178 158.547 234.11 159.38 233.775 160.405C233.472 161.336 233.134 161.992 232.763 162.375C232.396 162.76 232.013 162.988 231.611 163.06C231.213 163.138 230.561 163.03 229.655 162.734L227.226 161.917C226.533 161.691 226.01 161.557 225.657 161.513C225.307 161.475 224.915 161.487 224.479 161.548L225.152 159.483C225.308 159.473 225.536 159.474 225.834 159.483C225.969 159.489 226.059 159.491 226.103 159.489C225.873 159.019 225.737 158.553 225.696 158.091C225.655 157.628 225.71 157.167 225.86 156.706C226.125 155.894 226.554 155.325 227.148 154.998C227.741 154.676 228.374 154.625 229.047 154.845C229.493 154.99 229.854 155.226 230.132 155.552C230.414 155.879 230.584 156.263 230.643 156.704C230.705 157.152 230.688 157.76 230.591 158.528C230.456 159.563 230.406 160.295 230.442 160.723L230.65 160.791C231.051 160.922 231.368 160.915 231.601 160.772C231.839 160.631 232.048 160.285 232.227 159.735C232.348 159.364 232.368 159.05 232.287 158.794C232.212 158.539 232.011 158.287 231.687 158.039ZM229.083 160.28C229.081 159.983 229.112 159.525 229.178 158.905C229.243 158.286 229.245 157.867 229.184 157.65C229.08 157.315 228.879 157.099 228.582 157.002C228.29 156.907 228.002 156.933 227.718 157.082C227.434 157.23 227.237 157.473 227.127 157.81C227.005 158.186 227.011 158.585 227.147 159.008C227.253 159.322 227.429 159.563 227.676 159.731C227.836 159.843 228.167 159.981 228.667 160.144L229.083 160.28Z" fill="#2F69C2"/>
<path d="M223.582 182.741L222.49 184.471L221.459 183.821C221.669 184.268 221.764 184.753 221.742 185.275C221.721 185.797 221.562 186.291 221.268 186.758C220.753 187.573 219.998 188.063 219 188.228C218.003 188.393 216.934 188.116 215.793 187.396C214.622 186.656 213.891 185.794 213.6 184.81C213.314 183.829 213.429 182.931 213.943 182.116C214.188 181.729 214.487 181.425 214.841 181.205C215.193 180.99 215.666 180.826 216.26 180.715L212.725 178.484L213.897 176.627L223.582 182.741ZM219.034 182.438C218.245 181.94 217.563 181.728 216.987 181.802C216.415 181.878 215.987 182.141 215.704 182.59C215.431 183.022 215.377 183.489 215.539 183.993C215.707 184.498 216.185 185 216.973 185.498C217.708 185.962 218.348 186.159 218.891 186.089C219.434 186.019 219.843 185.767 220.118 185.33C220.404 184.877 220.466 184.389 220.303 183.867C220.144 183.348 219.721 182.872 219.034 182.438Z" fill="#2F69C2"/>
<path d="M206.814 204.806L205.12 206.415L199.624 203.51L202.277 209.116L200.629 210.681L197.253 202.875L196.638 201.467C196.444 200.983 196.323 200.587 196.276 200.28C196.224 199.977 196.228 199.689 196.287 199.418C196.338 199.147 196.454 198.865 196.634 198.571C196.811 198.281 197.051 197.992 197.353 197.705C197.659 197.414 197.99 197.161 198.345 196.946L199.67 198.057C199.375 198.245 199.127 198.434 198.926 198.624C198.556 198.976 198.387 199.345 198.417 199.733C198.444 200.117 198.57 200.521 198.795 200.947L206.814 204.806Z" fill="#2F69C2"/>
<path d="M125 221C178.019 221 221 178.019 221 125C221 71.9807 178.019 29 125 29C71.9807 29 29 71.9807 29 125C29 178.019 71.9807 221 125 221Z" stroke="#2F69C2" stroke-width="2"/>
<path d="M64.1137 145.314C63.9233 145.431 63.9961 145.7 64.4609 146.518C65.3345 147.968 68.1401 153.775 68.1401 154.083C68.1401 154.24 68.2577 154.509 68.4145 154.727C68.5489 154.94 68.7393 155.326 68.8177 155.595C68.8961 155.847 69.2657 156.698 69.6129 157.477C69.9825 158.25 70.2737 158.966 70.2737 159.084C70.2737 159.179 70.3857 159.549 70.5425 159.896C71.7633 162.758 72.4577 165.104 72.3625 165.972C72.3233 166.437 72.2281 166.538 71.7409 166.538C71.1977 166.538 70.8505 166.09 70.3073 164.695C70.2121 164.426 69.7305 163.362 69.2265 162.332C68.7393 161.307 68.3361 160.417 68.3361 160.361C68.3361 160.282 67.9273 159.392 67.4457 158.367C66.6505 156.698 65.9897 155.035 65.6817 153.949C65.6257 153.736 65.4689 153.294 65.3121 152.946C65.1609 152.616 65.0433 152.246 65.0433 152.151C65.0433 152.034 64.6569 151.222 64.1921 150.348C62.9321 147.985 62.0025 147.156 59.3705 146.03C58.6705 145.739 56.9121 145.588 56.9121 145.84C56.9121 145.896 57.1809 146.574 57.5113 147.33C57.8193 148.102 58.1721 148.914 58.2841 149.15C58.3849 149.402 58.5361 149.788 58.6537 150.023C59.3313 151.569 60.1041 154.223 60.9777 158.014C61.7113 161.251 62.0249 162.298 62.8761 164.309C64.8305 168.957 68.0281 173.448 72.0153 177.189C73.4657 178.544 76.2545 180.806 78.3041 182.279C79.3737 183.035 80.3425 183.73 80.4377 183.808C80.6897 184.004 82.8961 185.454 84.5985 186.558C86.3793 187.7 86.4969 187.778 87.3313 188.361C87.7345 188.669 88.1209 188.898 88.1993 188.898C88.2609 188.898 88.4121 189.016 88.5521 189.134C88.7033 189.268 89.0169 189.52 89.2465 189.677C95.0929 193.53 99.5673 197.786 101.679 201.487C102.255 202.49 103.185 204.774 103.185 205.183C103.185 205.34 103.325 205.805 103.476 206.23C103.863 207.311 103.863 211.69 103.476 213.163C103.073 214.709 103.09 214.843 103.728 214.843C104.619 214.843 107.295 213.275 110.353 210.99C112.963 209.036 115.483 206.594 116.972 204.584C117.997 203.167 119.839 200.266 119.839 200.014C119.839 199.958 119.957 199.628 120.108 199.298C120.399 198.62 120.808 197.517 121.172 196.453C122.063 193.894 122.102 185.785 121.234 183.186C121.116 182.856 120.881 182.122 120.707 181.54C120.534 180.963 120.304 180.302 120.226 180.09C120.131 179.877 119.879 179.255 119.643 178.734C118.271 175.503 116.586 172.888 112.772 168.083C112.173 167.327 111.434 166.381 111.103 165.955C110.275 164.83 109.709 164.118 109.44 163.827C109.306 163.67 109.188 163.514 109.188 163.458C109.188 163.379 108.858 162.842 108.432 162.22C107.463 160.764 106.73 158.871 106.439 157.068C106.287 155.982 106.131 155.595 105.918 155.595C105.683 155.595 103.555 157.628 102.855 158.558C102.468 159.045 101.83 161.134 101.83 161.873C101.83 162.623 102.547 164.695 102.799 164.695C102.877 164.695 103.051 164.93 103.168 165.222C103.286 165.53 103.633 166.168 103.941 166.655C104.249 167.137 104.563 167.758 104.641 168.01C104.714 168.262 104.871 168.587 104.988 168.744C105.218 169.018 105.548 169.83 106.035 171.376C106.187 171.902 106.439 172.731 106.595 173.196C106.999 174.456 106.943 176.489 106.5 177.497C105.744 179.199 104.753 179.726 100.34 180.846C98.6769 181.271 93.9505 181.271 92.2873 180.846C90.0977 180.286 88.9553 179.978 88.4737 179.759C87.4265 179.334 86.5921 178.97 85.8585 178.583C84.6209 177.939 84.3073 177.766 84.2121 177.654C84.1561 177.592 83.9825 177.474 83.8257 177.402C82.9521 176.993 82.1233 176.371 81.5969 175.772C81.2889 175.386 81.2665 175.29 81.5017 175.15C81.8713 174.921 82.7225 174.898 82.9745 175.134C83.0697 175.212 83.8033 175.542 84.5985 175.834C85.3937 176.125 86.2841 176.472 86.5753 176.623C86.8441 176.78 87.2305 176.898 87.4433 176.898C87.6393 176.898 88.0481 177.032 88.3561 177.189C88.6473 177.34 89.0729 177.48 89.2857 177.48C89.4761 177.48 90.0585 177.592 90.5625 177.749C91.0665 177.883 92.2089 178.152 93.1161 178.331C95.0761 178.695 99.2201 178.757 99.4329 178.404C99.5057 178.292 99.2369 177.883 98.7553 177.418C98.0553 176.78 96.4705 174.73 95.6921 173.51C94.4713 171.572 92.3265 166.129 91.2009 162.181C90.8929 161.117 90.1761 158.95 89.6161 157.438C89.1681 156.2 87.8689 153.663 87.4041 153.12C86.6537 152.207 85.4721 151.67 84.2681 151.647C83.7081 151.63 83.1649 151.726 83.0305 151.882C82.7617 152.134 82.7785 152.23 83.8649 155.114C84.1729 155.965 84.5593 156.973 84.6993 157.342C84.9681 158.115 85.2201 158.737 86.3233 161.582C86.7657 162.707 87.1185 163.67 87.1185 163.771C87.1185 164.079 90.0025 170.138 90.7977 171.494C91.3969 172.485 91.4921 173.218 91.0497 173.353C90.4673 173.549 87.4825 169.713 85.7801 166.538C85.5505 166.112 85.2761 165.63 85.1809 165.474C84.9121 165.009 83.4393 161.677 83.0529 160.73C82.9745 160.518 82.7617 159.857 82.5881 159.274C82.3921 158.698 82.1793 158.037 82.1009 157.824C82.0225 157.611 81.7929 156.956 81.6193 156.374C81.1321 154.862 80.2641 152.75 79.6425 151.67C78.5001 149.598 75.9241 147.464 74.5913 147.464C74.0481 147.464 73.9865 148.03 74.4121 149.15C74.5689 149.558 74.9553 150.796 75.3025 151.922C76.9713 157.46 78.5953 162.024 79.9505 164.986C80.1465 165.418 80.4153 165.978 80.5329 166.246C80.6505 166.521 80.9977 167.159 81.3057 167.702C81.6193 168.223 81.9665 168.901 82.0841 169.192C82.2185 169.5 82.3753 169.735 82.4481 169.735C82.7225 169.735 83.4953 171.438 83.3609 171.768C83.2041 172.194 82.3529 172.02 81.8097 171.398C80.7457 170.256 79.7601 168.918 78.9089 167.506C78.4049 166.655 77.9009 165.821 77.8057 165.67C77.4137 165.026 75.3081 160.518 75.3081 160.322C75.3081 160.266 75.1905 159.935 75.0337 159.605C74.6865 158.832 73.8353 156.609 73.7009 156.082C73.5609 155.578 73.0233 154.066 72.8105 153.568C72.5193 152.924 72.0937 151.86 71.8025 151.143C70.8113 148.59 68.6833 146.075 67.0369 145.47C66.0513 145.123 64.5393 145.045 64.1137 145.319V145.314V145.314ZM181.025 145.47C179.843 145.896 178.197 147.582 177.133 149.514C176.646 150.37 176.203 151.238 176.125 151.451C176.069 151.647 175.834 152.302 175.604 152.885C175.369 153.467 174.887 154.8 174.518 155.847C174.154 156.872 173.784 157.88 173.683 158.076C173.588 158.25 173.415 158.754 173.28 159.179C172.832 160.574 169.775 166.941 169.405 167.215C169.349 167.271 169.175 167.602 169.041 167.932C168.884 168.279 168.688 168.57 168.593 168.57C168.498 168.57 168.38 168.722 168.302 168.901C168.033 169.634 166.426 171.494 165.709 171.863C165.3 172.093 164.567 171.958 164.567 171.645C164.567 171.471 164.97 170.682 165.149 170.502C165.513 170.155 166.851 167.814 167.585 166.246C167.859 165.664 168.151 165.042 168.223 164.891C168.576 164.214 171.147 157.589 171.147 157.398C171.147 157.202 171.903 154.727 172.233 153.854C172.367 153.484 172.698 152.381 172.989 151.434C173.258 150.466 173.627 149.34 173.784 148.914C174.187 147.772 174.131 147.464 173.571 147.464C171.942 147.464 169.444 149.71 168.111 152.398C167.333 153.971 167.081 154.548 166.907 155.114C165.748 158.944 164.645 161.968 163.984 163.183C163.867 163.379 163.794 163.648 163.794 163.805C163.794 163.939 163.659 164.174 163.503 164.309C163.346 164.443 163.211 164.656 163.211 164.774C163.211 165.003 162.399 166.554 161.66 167.697C161.447 168.005 161.139 168.531 160.966 168.856C160.014 170.542 157.516 173.409 156.995 173.409C156.491 173.409 156.743 172.63 158.121 169.903C159.667 166.846 160.232 165.625 161.156 163.245C161.447 162.489 161.8 161.615 161.951 161.307C162.377 160.338 164.371 154.856 164.371 154.643C164.371 154.531 164.55 154.122 164.74 153.719C165.379 152.459 165.401 152.168 164.914 151.838C164.337 151.412 163.441 151.451 162.377 151.916C161.235 152.42 160.327 153.389 159.588 154.878C158.911 156.25 157.981 158.675 157.981 159.062C157.981 159.196 157.863 159.582 157.712 159.913C157.555 160.26 157.035 161.828 156.531 163.435C156.01 165.026 155.545 166.42 155.467 166.532C155.388 166.633 155.254 167.019 155.175 167.383C155.019 168.122 153.568 171.415 152.795 172.826C152.521 173.308 152.213 173.874 152.095 174.086C151.67 174.859 150.723 176.041 149.715 177.066C149.155 177.631 148.691 178.169 148.691 178.27C148.691 178.712 153.395 178.734 155.271 178.286C156.839 177.9 158.059 177.648 158.759 177.53C159.123 177.474 159.532 177.34 159.667 177.239C159.801 177.127 160.193 176.97 160.54 176.892C160.887 176.797 161.66 176.545 162.243 176.31C166.079 174.803 166.695 174.669 166.695 175.346C166.695 175.828 165.866 176.662 165.015 177.01C164.684 177.144 164.298 177.379 164.141 177.514C164.007 177.648 163.503 177.956 163.015 178.208C162.534 178.443 162.013 178.734 161.856 178.83C160.831 179.412 158.194 180.319 156.066 180.784C153.955 181.249 149.346 181.305 148.108 180.862C147.666 180.706 147.044 180.571 146.736 180.571C146.423 180.571 145.902 180.454 145.555 180.302C145.202 180.146 144.547 179.91 144.099 179.776C143.152 179.507 142.239 178.673 141.702 177.626C141.231 176.702 141.198 174.198 141.64 172.653C142.088 171.141 142.357 170.424 143.483 167.887C143.578 167.674 143.886 167.154 144.138 166.728C144.412 166.302 144.681 165.815 144.759 165.664C144.838 165.507 145.202 164.886 145.571 164.309C146.21 163.318 146.249 163.127 146.249 161.789C146.249 160.456 146.193 160.243 145.493 159.078C144.799 157.897 142.514 155.399 142.122 155.399C142.027 155.399 141.892 155.903 141.814 156.502C141.64 158.07 141.097 159.622 140.095 161.458C139.182 163.144 136.55 166.784 135.133 168.352C134.982 168.526 134.416 169.242 133.895 169.982C133.352 170.698 132.871 171.275 132.775 171.275C132.697 171.275 132.619 171.376 132.619 171.471C132.619 171.589 132.288 172.126 131.879 172.692C129.091 176.545 127.411 180.476 126.537 185.18C126.095 187.504 126.134 192.342 126.593 194.706C127.08 197.069 127.175 197.399 128.34 199.992C128.665 200.726 128.939 201.403 128.939 201.504C128.939 201.599 129.018 201.678 129.096 201.678C129.191 201.678 129.348 201.868 129.46 202.12C129.807 202.859 132.21 205.956 133.47 207.272C135.29 209.17 138.599 211.746 141.545 213.583C142.727 214.317 143.925 214.843 144.407 214.843C144.95 214.843 144.972 214.821 144.815 214.104C144.351 211.858 144.177 209.344 144.39 208.28C144.524 207.658 144.619 206.902 144.619 206.594C144.619 204.83 146.518 200.882 148.495 198.502C150.315 196.313 154.033 192.981 156.643 191.2C157.32 190.758 157.981 190.27 158.115 190.175C158.446 189.884 159.723 189.01 162.92 186.944C170.895 181.73 173.045 180.09 177.055 176.214C178.387 174.915 180.633 172.306 180.633 172.054C180.633 171.953 180.711 171.858 180.807 171.858C181.059 171.858 183.231 168.453 184.273 166.414C185.628 163.726 186.698 160.59 187.196 157.723C187.627 155.422 188.96 151.003 189.811 149.144C190.394 147.906 191.088 146.103 191.088 145.913C191.088 145.622 189.464 145.678 188.843 146.008C188.535 146.165 188.148 146.299 187.975 146.299C187.795 146.299 187.543 146.434 187.409 146.59C187.275 146.747 187.062 146.882 186.944 146.882C186.502 146.898 184.312 149.222 184.312 149.71C184.312 149.782 184.195 150.001 184.043 150.152C183.909 150.326 183.5 151.199 183.153 152.106C182.8 153.019 182.453 153.926 182.358 154.139C182.279 154.352 182.027 155.052 181.815 155.713C181.602 156.351 181.12 157.488 180.751 158.244C180.364 159 180.056 159.678 180.056 159.717C180.056 159.778 179.664 160.63 179.199 161.615C177.923 164.365 177.732 164.83 177.732 165.059C177.732 165.177 177.654 165.278 177.559 165.278C177.48 165.278 177.323 165.563 177.228 165.894C177.071 166.398 176.915 166.554 176.489 166.594C176.181 166.633 175.851 166.554 175.755 166.398C175.582 166.129 175.716 164.83 175.985 164.208C176.086 163.995 176.377 163.166 176.629 162.371C177.228 160.529 179.451 155.03 180.482 152.885C181.563 150.561 183.713 146.26 183.987 145.851C184.178 145.582 184.161 145.465 183.926 145.33C183.5 145.062 182.011 145.118 181.025 145.465V145.47V145.47Z" fill="#2F69C2"/>
<path d="M90.5694 142.463C89.3709 142.851 88.3815 143.667 87.7593 144.819C87.2289 145.758 87.183 149.149 87.6624 150.638C88.2183 152.418 88.458 152.918 88.7436 152.918C89.2026 152.918 92.3034 151.24 93.2622 150.47C93.7671 150.083 94.4658 149.267 94.8024 148.69C95.6643 147.227 95.547 145.278 94.5372 143.738L93.8385 142.708L93.5733 143.957C93.1908 145.686 91.8699 147.635 91.0998 147.635C90.8346 147.635 90.7887 147.298 90.8601 145.952C90.9315 144.559 91.0743 144.126 91.7271 143.187C92.589 141.958 92.4717 141.887 90.5694 142.463V142.463ZM162.031 139.174C161.837 139.291 161.954 139.485 162.413 139.796C162.775 140.036 163.326 140.617 163.617 141.045C164.213 141.912 164.938 143.789 164.744 143.957C164.672 144.029 164.264 143.957 163.831 143.81C162.872 143.498 161.475 142.132 160.873 140.903L160.445 140.061L160.128 140.903C158.853 144.462 161.041 147.201 165.993 148.236C168.615 148.813 168.446 148.93 168.446 146.237C168.446 142.514 167.579 140.398 165.657 139.459C164.672 138.98 162.581 138.812 162.031 139.174V139.174ZM85.1634 128.382C81.8229 129.244 79.1811 133.115 77.9775 138.883C77.7837 139.796 77.7123 140.637 77.8092 140.734C77.9061 140.831 79.2525 141.045 80.7876 141.193C86.9178 141.815 90.7887 140.398 92.2524 137.011C92.8797 135.568 93.0939 133.548 92.7828 132.008L92.589 130.927L92.0637 131.911C91.2222 133.574 89.5392 134.823 87.2289 135.522C85.8366 135.93 85.041 135.95 85.041 135.542C85.041 134.798 86.367 132.661 87.3972 131.748C88.0245 131.192 89.1771 130.448 89.9727 130.085L91.4109 129.438L89.9727 128.907C88.3815 128.311 86.2956 128.066 85.1634 128.382V128.382ZM104.584 126.505C100.331 128.142 97.8318 133.309 97.2045 141.77L97.0617 143.718L98.0001 143.881C99.3669 144.1 104.752 143.595 106.889 143.045C110.811 142.035 113.499 140.158 114.774 137.562C115.376 136.358 115.447 135.95 115.447 133.814C115.447 132.131 115.304 130.952 114.993 129.897L114.534 128.382L113.764 130.014C112.78 132.156 111 133.91 108.741 135.017C107.802 135.471 106.721 135.905 106.339 136.001L105.64 136.17L105.808 135.109C106.242 132.253 108.475 129.295 111.484 127.586L112.78 126.867L111.484 126.434C109.582 125.858 106.216 125.883 104.584 126.505V126.505ZM143.691 125.424C142.559 125.618 141.095 126 140.422 126.266L139.723 126.505L141.07 127.061C141.814 127.347 142.799 127.903 143.303 128.285C144.89 129.489 146.863 132.61 147.389 134.752L147.557 135.446L146.455 135.303C143.808 134.92 140.468 132.345 139.004 129.56C138.617 128.79 138.209 128.26 138.112 128.357C137.801 128.668 137.199 131.988 137.199 133.334C137.199 134.053 137.438 135.374 137.729 136.267C138.163 137.633 138.499 138.138 139.82 139.485C140.901 140.566 141.911 141.311 143.018 141.815C145.853 143.136 150.01 144.003 153.641 144.029H155.538L155.396 140.469C155.227 136.047 154.503 132.661 153.208 130.157C152.463 128.719 150.489 126.816 149.051 126.169C147.679 125.567 145.012 125.184 143.691 125.424V125.424ZM160.633 123.695C160.108 123.863 159.287 124.2 158.833 124.44L157.991 124.894L159.481 125.327C160.587 125.664 161.306 126.072 162.316 127.01C163.974 128.525 165.08 130.279 164.576 130.59C164.096 130.881 163.663 130.856 162.199 130.422C160.536 129.943 159.455 129.224 158.063 127.755L156.956 126.531L156.788 127.709C156.594 129.03 157.007 131.243 157.629 132.493C159.358 135.833 164.479 137.225 171.16 136.17C172.052 136.022 172.052 136.022 171.909 135.16C171.833 134.681 171.496 133.283 171.185 132.034C169.696 126.22 167.003 123.333 163.158 123.379C162.291 123.379 161.164 123.527 160.633 123.695V123.695ZM75.1164 120.788C72.9999 121.456 71.5107 124.032 70.9803 127.949L70.8375 129.076L72.0666 129.244C74.2035 129.535 77.4012 128.887 78.6762 127.877C79.9461 126.867 80.5734 124.557 80.094 122.685C79.9461 122.155 79.9257 122.155 79.4208 122.971C78.819 123.96 77.952 124.679 76.7739 125.159C75.4071 125.735 75.1623 125.664 75.4785 124.725C75.8865 123.501 76.5597 122.731 77.8551 121.869C78.8394 121.242 78.9873 121.074 78.6252 120.931C77.6664 120.594 75.9834 120.523 75.1164 120.788V120.788ZM172.894 115.759C172.169 116.096 171.257 116.963 170.537 118.07C169.936 118.937 170.007 119.008 171.185 118.621C172.052 118.335 172.506 118.309 173.567 118.549C174.286 118.692 175.082 118.957 175.321 119.151C175.775 119.513 175.775 119.513 175.296 119.87C174.286 120.666 171.93 120.88 170.441 120.304C169.89 120.089 170.634 121.385 171.619 122.323C173.302 123.935 175.005 124.032 177.723 122.634C178.779 122.109 180.105 121.242 180.702 120.691L181.783 119.727L180.222 118.284C177.484 115.759 174.888 114.872 172.894 115.759V115.759ZM106.073 112.276C114.417 116.387 119.389 122.803 121.96 132.732C122.322 134.125 122.348 135.4 122.2 144.269C122.057 153.76 122.011 154.29 121.532 155.3C120.374 157.682 115.065 160.517 104.39 164.459C100.428 165.898 99.321 166.403 100.474 166.234C101.483 166.066 112.923 165.444 119.848 165.153C126.07 164.913 146.741 165.01 151.499 165.301C152.438 165.347 153.085 165.372 152.942 165.301C152.825 165.25 151.188 164.771 149.337 164.22C139.749 161.379 133.45 158.594 131.216 156.167C130.446 155.325 130.253 154.917 130.135 153.857C129.896 151.526 129.579 135.063 129.748 133.334C130.064 130.279 132.752 124.129 135.587 120.018C137.464 117.3 140.131 114.632 142.533 113.021C143.711 112.23 144.844 111.578 145.012 111.578C145.206 111.578 145.42 111.486 145.491 111.338C145.563 111.22 145.491 111.149 145.323 111.195C142.294 112.159 141.335 112.516 139.58 113.408C135.949 115.209 132.848 117.83 130.421 121.12C129.146 122.828 127.346 126.291 126.744 128.091C126.53 128.79 126.31 129.366 126.29 129.366C126.239 129.366 125.663 128.479 124.989 127.372C121.047 120.905 115.666 115.499 110.735 113C108.863 112.062 106.313 111.266 104.273 111.001C103.309 110.858 103.503 111.001 106.073 112.276V112.276ZM89.2485 107.013C86.2446 107.615 82.5216 109.849 79.2729 112.975L77.2329 114.943L79.227 116.846C84.684 122.058 90.1869 124.103 94.1751 122.446C96.3171 121.553 98.7651 118.911 99.8259 116.341L100.183 115.448L99.0099 116.05C97.3473 116.866 95.7867 117.106 93.7926 116.866C92.0637 116.652 89.8248 115.933 89.0088 115.331C88.6008 115.04 88.6467 114.944 89.8758 114.153C91.6761 112.949 93.7926 112.445 96.2457 112.638C97.3269 112.71 98.6478 112.924 99.1986 113.143L100.183 113.48L99.8463 112.832C99.0303 111.266 97.23 109.13 96.0009 108.334C93.864 106.896 91.8189 106.508 89.2485 107.013V107.013ZM68.7975 106.631C67.1604 107.35 64.4472 110.593 64.0137 112.327C63.8658 112.924 63.9423 113 65.6202 113.623C68.0733 114.561 70.863 114.729 72.2298 114.01C73.6476 113.286 74.7084 111.557 74.7084 109.946V109.344L74.1525 109.849C73.8669 110.114 73.2192 110.522 72.7347 110.741C71.7504 111.124 69.5421 111.246 69.2973 110.884C69.2259 110.762 69.5166 110.282 69.9501 109.823C70.6947 109.058 71.9901 108.456 73.5762 108.094L74.2749 107.951L73.6476 107.472C72.2094 106.314 70.2612 106.003 68.7975 106.631ZM155.273 105.213C152.8 105.906 150.709 107.829 149.311 110.741C148.281 112.853 148.255 113.215 149.194 112.541C150.974 111.292 153.738 110.884 156.502 111.46C158.425 111.843 160.031 112.47 160.031 112.807C160.031 113.189 157.772 114.704 156.477 115.209C154.916 115.785 151.214 115.953 149.653 115.499C149.148 115.352 148.735 115.306 148.735 115.428C148.735 115.785 150.586 118.095 151.576 118.911C152.101 119.365 153.111 120.038 153.809 120.401C154.988 121.002 155.345 121.074 157.512 121.074C160.297 121.074 161.714 120.594 164.672 118.621C166.381 117.493 170.899 113.332 171.379 112.444C171.664 111.914 171.833 112.108 168.324 109.441C163.301 105.667 158.833 104.203 155.273 105.213V105.213ZM123.694 104.708C120.088 105.692 118.211 109.92 119.92 113.286C121.863 117.157 126.983 117.856 129.87 114.658C131.048 113.357 131.431 112.373 131.431 110.547C131.431 107.712 129.799 105.549 127.034 104.728C125.591 104.295 125.183 104.295 123.694 104.708ZM174.765 101.653C173.71 102.326 172.991 103.433 172.557 104.948C172.338 105.789 172.338 105.835 172.725 105.498C173.924 104.468 176.596 103.887 177.892 104.417C179.044 104.897 176.765 106.651 174.48 107.038C173.036 107.304 173.011 107.324 173.399 107.758C174.092 108.528 175.729 109.175 176.979 109.175C178.493 109.175 179.86 108.502 181.278 107.059C182.364 105.978 184.211 103.458 184.022 103.31C183.517 102.877 181.472 101.893 180.294 101.51C178.106 100.766 176.015 100.837 174.765 101.653V101.653ZM75.0705 93.651C72.2298 94.2732 71.3424 94.5894 71.3424 95.0178C71.3424 96.099 73.2192 100.261 74.7339 102.469C77.4981 106.58 81.5118 107.375 85.6224 104.682L86.9892 103.769L85.7142 103.601C85.0206 103.504 83.9139 103.213 83.2866 102.953C82.0167 102.397 79.1811 99.7557 79.3443 99.2508C79.4208 99.057 80.0175 98.9601 81.3435 98.9856C83.5314 98.9856 85.0665 99.6333 86.8209 101.245L87.8307 102.183L87.6624 100.429C87.3513 97.2312 85.9794 95.1147 83.4804 94.008C82.4961 93.5541 81.7719 93.4572 79.3953 93.4113C77.6409 93.3603 75.9324 93.4572 75.0705 93.651V93.651ZM165.825 89.469C162.122 90.2595 160.031 92.9982 160.031 97.1088V98.9601L160.633 98.0727C161.765 96.4152 164.122 95.2116 166.957 94.8495C168.472 94.6608 168.543 94.875 167.508 96.5121C166.549 98.0013 164.841 99.1998 162.699 99.8985L160.898 100.475L162.342 101.199C166.717 103.407 170.318 102.28 173.251 97.782C174.311 96.15 175.847 92.5902 176.066 91.2948L176.183 90.4992L173.71 89.9739C170.92 89.3466 167.411 89.1324 165.825 89.469ZM145.323 87.786C138.28 88.9845 135.23 93.4572 136.765 100.358L137.005 101.51L137.561 100.332C138.856 97.5168 141.937 95.334 145.588 94.6608L146.404 94.5129L146.261 95.3799C145.853 97.8789 143.354 100.765 140.351 102.229L138.571 103.096L139.937 103.627C146.139 105.932 151.045 103.29 153.713 96.1959C154.483 94.1049 155.467 89.8515 155.467 88.5561C155.467 87.8829 155.421 87.8574 153.998 87.6891C152.03 87.4953 146.741 87.5463 145.323 87.786ZM90.2124 88.9131C89.8962 92.9064 90.1869 97.2312 90.906 99.465C91.9668 102.734 93.9354 104.922 96.6996 105.835C97.9491 106.243 101.963 106.243 103.166 105.835L104.079 105.524L102.804 104.825C101.147 103.912 100.545 103.361 99.4383 101.653C98.6223 100.378 97.8318 98.4348 97.4187 96.6039C97.2759 95.9307 97.3014 95.9103 98.0715 96.0786C101.004 96.7263 103.885 99.4905 105.329 102.999L105.88 104.392L106.553 102.398C107.083 100.811 107.226 99.9444 107.252 98.2155C107.252 96.2469 107.206 95.9103 106.481 94.467C104.513 90.4533 99.3924 87.8319 91.365 86.7252L90.3807 86.5824L90.2124 88.9131V88.9131ZM78.6762 82.8798C78.2886 82.9308 77.4012 83.0991 76.7025 83.2419L75.453 83.4816L75.8355 84.7311C77.4216 90.1881 80.3541 92.2077 83.9598 90.3819L84.9237 89.877L83.7915 89.5404C83.0469 89.3211 82.3023 88.8417 81.5832 88.1226C80.1858 86.7252 80.1654 86.3427 81.4404 86.3427C82.6899 86.3427 83.7711 86.8017 84.8727 87.786L85.7652 88.5561V87.5208C85.7397 85.1646 84.225 83.4561 81.7005 82.9767C80.4306 82.737 80.094 82.737 78.6762 82.8798V82.8798ZM119.221 80.2125C114.631 85.0473 112.346 89.6577 112.78 93.192C113.116 96.0072 115.279 98.8173 118.451 100.5C119.701 101.174 119.94 101.245 119.772 100.862C118.283 97.3995 118.354 94.5639 120.037 90.9072L120.639 89.5863L121.144 90.1881C121.435 90.5247 121.94 91.3917 122.276 92.1108C122.852 93.3144 122.898 93.6969 122.873 96.3183C122.873 98.3838 122.755 99.4905 122.465 100.21C122.251 100.786 122.128 101.245 122.2 101.245C122.633 101.245 125.566 99.1029 126.478 98.1186C128.187 96.2928 128.86 94.6353 128.86 92.2536C128.835 88.4082 126.698 84.1548 122.368 79.3965L121.215 78.096L119.221 80.2125ZM166.162 78.147C164.815 78.4836 163.617 79.2027 162.964 80.0442C162.388 80.7888 162.316 81.1509 162.245 82.9563L162.173 85.0218L162.724 84.1089C163.04 83.6295 163.663 82.9563 164.142 82.6401C165.055 82.0179 166.932 81.3651 167.146 81.6099C167.748 82.1862 165.922 84.5628 164.29 85.3329L163.28 85.8123L163.999 86.103C164.407 86.2458 165.274 86.4396 165.922 86.511C167.462 86.6538 168.977 85.9092 170.007 84.5169C170.752 83.553 171.93 80.4063 172.098 79.014C172.169 78.3612 172.098 78.2898 171.211 78.1215C169.987 77.9073 167.1 77.9328 166.162 78.147V78.147ZM155.584 71.823C152.657 73.3173 151.31 74.7351 150.806 76.8006C150.586 77.7135 151.214 79.779 151.958 80.697L152.56 81.4161L152.58 80.697C152.58 79.6872 153.57 77.7135 154.483 76.8465C155.13 76.2498 155.273 76.1988 155.467 76.4895C156.043 77.3769 155.61 79.2996 154.457 81.0081L153.758 82.0638L154.794 81.8955C156.91 81.5334 158.277 80.4777 158.853 78.7233C159.481 76.7751 158.614 70.9611 157.68 70.9611C157.461 70.9611 156.523 71.3436 155.584 71.823V71.823ZM88.3356 72.2361C86.8923 75.8163 86.9433 78.6009 88.458 80.1156C89.274 80.9367 89.9217 81.2223 91.4619 81.513L92.4921 81.7017L91.7985 80.9112C91.0029 80.0187 90.4521 77.8818 90.6918 76.7292C90.8346 76.0305 90.8601 76.0305 91.4364 76.4181C92.3238 76.9944 93.2367 78.7488 93.4305 80.1666L93.5733 81.4161L94.3434 80.238C95.8581 77.9787 95.6439 75.9132 93.7212 73.7967C92.64 72.6186 89.8758 70.7214 89.223 70.7214C89.0547 70.7214 88.6722 71.3946 88.3356 72.2361V72.2361ZM100.596 72.0882C99.1782 76.2243 98.8161 80.0187 99.6321 82.3749C100.428 84.7107 102.855 86.3172 106.124 86.7048L107.614 86.8731L106.65 85.8378C105.451 84.5169 104.727 82.5942 104.559 80.2635C104.513 79.2537 104.513 78.4122 104.61 78.4122C105.064 78.4122 106.196 79.2027 106.869 79.9728C108.068 81.3192 108.838 83.0481 109.2 85.236L109.343 86.1744L109.944 85.287C112.515 81.513 112.321 78.096 109.388 75.1431C107.925 73.6998 105.834 72.3075 103.432 71.1753C102.325 70.65 101.386 70.2369 101.341 70.2369C101.269 70.2369 100.933 71.0784 100.596 72.0882V72.0882ZM140.228 69.4209C135.852 72.3279 133.787 75.1176 133.787 78.1929C133.787 80.0187 134.771 82.1352 136.286 83.6295L137.347 84.6597L137.321 82.788C137.321 81.2019 137.418 80.7174 138.066 79.371C138.499 78.5091 139.172 77.4279 139.58 76.9689C140.442 75.9846 140.636 76.1274 141.044 78.096C141.406 79.7586 141.024 81.6099 139.963 83.6295C139.529 84.4659 139.269 85.1391 139.387 85.1391C139.484 85.1391 140.351 84.8535 141.263 84.5169C145.996 82.7625 147.414 78.6264 145.323 72.5472C144.624 70.4817 143.258 67.8348 142.895 67.8348C142.753 67.8603 141.529 68.5539 140.228 69.4209V69.4209ZM112.132 65.8662C110.735 68.9874 110.495 71.8995 111.484 73.557C112.107 74.5668 113.525 75.4797 114.845 75.6735C115.906 75.8418 115.927 75.8163 115.519 75.3828C114.774 74.5413 114.366 73.1694 114.366 71.5629C114.366 70.6959 114.463 69.9972 114.56 69.9972C114.871 69.9972 116.192 71.4864 116.6 72.282C116.794 72.69 117.033 73.5315 117.13 74.1588C117.344 75.5256 117.635 75.4083 118.573 73.5315C119.629 71.415 119.293 69.7371 117.421 67.692C116.217 66.3711 113.647 64.4688 113.045 64.4688C112.877 64.4688 112.469 65.0961 112.132 65.8662V65.8662ZM130.11 63.2703C126.601 68.0031 126.841 71.6088 130.757 73.2918L131.405 73.5825L131.023 72.69C130.589 71.6343 130.712 69.2526 131.237 68.1969L131.599 67.5237L132.298 68.7018C132.874 69.6861 132.971 70.1196 132.971 71.5833C132.971 73.506 133.114 73.5825 134.338 72.2361C136.597 69.8085 136.092 66.9219 132.731 63.2907L131.262 61.7301L130.11 63.2703V63.2703Z" fill="#2F69C2"/>
<path d="M68.2905 211.744L76.3701 216.518L75.2423 218.427L72.3838 216.737L68.2353 223.758L65.8729 222.362L70.0213 215.341L67.1628 213.652L68.2905 211.744Z" fill="#2F69C2"/>
<path d="M77.6604 224.938L79.9078 226.562C79.1481 227.305 78.31 227.743 77.3934 227.878C76.4856 228.01 75.5211 227.824 74.4999 227.319C72.8834 226.519 71.9484 225.399 71.6947 223.959C71.5006 222.81 71.7225 221.59 72.3604 220.301C73.1225 218.76 74.1212 217.754 75.3566 217.283C76.5949 216.806 77.8297 216.872 79.061 217.481C80.444 218.165 81.3086 219.163 81.6549 220.475C82.004 221.781 81.6949 223.367 80.7275 225.235L74.5653 222.187C74.2219 222.925 74.1389 223.592 74.3161 224.188C74.4963 224.778 74.8694 225.213 75.4354 225.493C75.8205 225.684 76.1964 225.739 76.5629 225.659C76.9294 225.579 77.2952 225.338 77.6604 224.938ZM79.0301 222.521C79.3648 221.801 79.448 221.17 79.2797 220.629C79.1143 220.083 78.7807 219.685 78.2789 219.437C77.742 219.171 77.2018 219.147 76.6583 219.365C76.1147 219.583 75.6799 220.029 75.3538 220.703L79.0301 222.521Z" fill="#2F69C2"/>
<path d="M82.7193 219.553L85.1006 220.489L84.5432 221.907C85.0428 221.544 85.6157 221.314 86.2619 221.219C86.9081 221.123 87.5524 221.201 88.1946 221.454C89.3156 221.894 90.0941 222.708 90.5304 223.893C90.9667 225.079 90.8763 226.457 90.2594 228.026C89.6259 229.638 88.739 230.737 87.5988 231.324C86.461 231.905 85.3316 231.976 84.2107 231.535C83.6775 231.325 83.2344 231.029 82.8815 230.645C82.5347 230.264 82.2232 229.722 81.947 229.019L80.0356 233.881L77.4817 232.877L82.7193 219.553ZM83.4131 225.209C82.9868 226.293 82.8863 227.181 83.1116 227.871C83.3394 228.555 83.7623 229.019 84.3803 229.262C84.9741 229.495 85.5608 229.453 86.1404 229.135C86.7224 228.811 87.2266 228.107 87.6529 227.022C88.0507 226.011 88.1431 225.179 87.9301 224.529C87.717 223.879 87.3106 223.436 86.7107 223.2C86.0867 222.955 85.4733 222.993 84.8708 223.316C84.2706 223.633 83.7847 224.264 83.4131 225.209Z" fill="#2F69C2"/>
<path d="M92.532 226.613L90.2739 225.471C90.8286 224.59 91.5023 224.016 92.2951 223.75C93.0878 223.483 94.1299 223.543 95.4214 223.928C96.5944 224.277 97.426 224.678 97.9163 225.13C98.4085 225.576 98.7058 226.048 98.8083 226.547C98.9189 227.042 98.804 227.861 98.4636 229.002L97.5205 232.064C97.2601 232.937 97.1081 233.595 97.0646 234.037C97.0292 234.475 97.0563 234.965 97.1457 235.508L94.544 234.733C94.5275 234.538 94.5205 234.254 94.5229 233.881C94.5258 233.712 94.5252 233.6 94.5214 233.544C93.942 233.847 93.3639 234.031 92.7872 234.097C92.2105 234.163 91.6321 234.109 91.0518 233.936C90.0286 233.631 89.3034 233.113 88.8763 232.381C88.4553 231.651 88.3713 230.861 88.6243 230.013C88.7917 229.451 89.0746 228.992 89.4731 228.635C89.8734 228.273 90.3482 228.047 90.8974 227.96C91.4548 227.868 92.2149 227.87 93.1779 227.967C94.4758 228.102 95.3916 228.141 95.9253 228.083L96.0034 227.821C96.1541 227.315 96.1362 226.919 95.9499 226.633C95.7655 226.34 95.327 226.09 94.6344 225.884C94.1665 225.745 93.7736 225.729 93.4558 225.838C93.1398 225.941 92.8319 226.199 92.532 226.613ZM95.4148 229.795C95.0444 229.807 94.4709 229.782 93.6945 229.721C92.918 229.659 92.3951 229.67 92.1259 229.752C91.7102 229.893 91.4466 230.151 91.335 230.525C91.2252 230.894 91.2676 231.253 91.4622 231.603C91.6567 231.953 91.9661 232.191 92.3904 232.318C92.8645 232.459 93.3634 232.438 93.8869 232.254C94.2757 232.112 94.5712 231.884 94.7734 231.571C94.9089 231.367 95.0707 230.95 95.2585 230.319L95.4148 229.795Z" fill="#2F69C2"/>
<path d="M99.2564 225.331L108.271 227.211L106.154 237.363L103.468 236.803L105.132 228.82L101.49 228.061L99.8254 236.043L97.139 235.483L99.2564 225.331Z" fill="#2F69C2"/>
<path d="M108.245 227.211L110.864 227.518L110.108 233.987L115.054 228.008L117.731 228.321L116.527 238.622L113.908 238.315L114.678 231.729L109.66 237.819L107.041 237.512L108.245 227.211Z" fill="#2F69C2"/>
<path d="M126.495 228.571L126.196 238.938L123.473 238.859L123.597 234.555L123.343 234.547C122.751 234.53 122.312 234.596 122.028 234.744C121.75 234.886 121.435 235.199 121.083 235.684L120.911 235.884L119.021 238.731L115.829 238.639L117.878 235.689C118.462 234.846 118.984 234.366 119.444 234.249C118.677 234.182 118.061 233.874 117.594 233.327C117.135 232.773 116.917 232.079 116.941 231.246C116.96 230.576 117.133 230.008 117.459 229.542C117.792 229.076 118.221 228.766 118.746 228.612C119.278 228.451 120.062 228.386 121.097 228.416L126.495 228.571ZM123.72 230.26L121.758 230.203C121.036 230.182 120.525 230.272 120.227 230.472C119.928 230.665 119.772 230.999 119.758 231.474C119.744 231.949 119.9 232.296 120.226 232.513C120.552 232.731 121.093 232.851 121.848 232.873L123.644 232.924L123.72 230.26Z" fill="#2F69C2"/>
<path d="M130.588 228.425L133.133 228.17L133.285 229.686C133.564 229.135 133.969 228.669 134.5 228.288C135.031 227.908 135.64 227.684 136.326 227.615C137.525 227.495 138.589 227.862 139.519 228.718C140.448 229.574 140.997 230.84 141.165 232.518C141.338 234.241 141.051 235.624 140.305 236.668C139.558 237.704 138.586 238.283 137.387 238.403C136.817 238.46 136.288 238.398 135.799 238.218C135.316 238.038 134.791 237.698 134.224 237.198L134.745 242.397L132.014 242.67L130.588 228.425ZM133.788 233.139C133.904 234.299 134.22 235.134 134.736 235.645C135.251 236.15 135.839 236.369 136.5 236.303C137.135 236.239 137.637 235.934 138.008 235.386C138.378 234.832 138.504 233.976 138.388 232.816C138.28 231.734 137.982 230.953 137.496 230.471C137.009 229.99 136.445 229.782 135.804 229.846C135.137 229.913 134.609 230.227 134.22 230.79C133.831 231.346 133.687 232.129 133.788 233.139Z" fill="#2F69C2"/>
<path d="M142.537 230.229L140.006 230.245C140.097 229.208 140.435 228.39 141.018 227.791C141.602 227.192 142.556 226.769 143.881 226.521C145.084 226.296 146.007 226.273 146.649 226.451C147.291 226.623 147.771 226.907 148.09 227.305C148.415 227.694 148.686 228.475 148.905 229.646L149.464 232.8C149.632 233.696 149.797 234.35 149.96 234.764C150.129 235.169 150.377 235.593 150.704 236.035L148.036 236.534C147.932 236.368 147.796 236.118 147.628 235.786C147.553 235.634 147.501 235.534 147.473 235.487C147.095 236.021 146.665 236.449 146.183 236.771C145.7 237.093 145.161 237.309 144.565 237.421C143.516 237.617 142.634 237.487 141.919 237.031C141.212 236.573 140.776 235.91 140.614 235.039C140.506 234.463 140.548 233.926 140.74 233.426C140.93 232.92 141.249 232.503 141.698 232.174C142.152 231.838 142.829 231.493 143.73 231.139C144.946 230.667 145.779 230.283 146.227 229.987L146.177 229.718C146.08 229.2 145.883 228.856 145.586 228.686C145.289 228.51 144.784 228.488 144.074 228.621C143.594 228.711 143.238 228.876 143.005 229.119C142.771 229.354 142.615 229.725 142.537 230.229ZM146.555 231.744C146.231 231.924 145.709 232.163 144.991 232.463C144.272 232.763 143.811 233.011 143.61 233.208C143.304 233.523 143.187 233.873 143.259 234.257C143.33 234.635 143.531 234.935 143.864 235.157C144.197 235.38 144.582 235.45 145.017 235.369C145.503 235.278 145.937 235.032 146.319 234.629C146.6 234.325 146.759 233.987 146.795 233.616C146.823 233.373 146.776 232.928 146.655 232.281L146.555 231.744Z" fill="#2F69C2"/>
<path d="M152.421 231.157L151.963 229.429C152.422 229.307 152.748 229.19 152.94 229.079C153.131 228.961 153.288 228.764 153.41 228.489C153.537 228.206 153.562 227.917 153.483 227.621C153.399 227.306 153.206 227.048 152.903 226.845C152.605 226.635 152.226 226.591 151.767 226.713C151.414 226.806 151.12 226.965 150.883 227.19C150.646 227.414 150.49 227.84 150.414 228.466L148.039 228.582C148.032 227.64 148.341 226.851 148.967 226.213C149.592 225.576 150.38 225.131 151.33 224.879C152.538 224.558 153.546 224.587 154.354 224.965C155.168 225.342 155.686 225.948 155.908 226.785C156.047 227.307 156.018 227.78 155.82 228.203C155.627 228.618 155.261 229.055 154.723 229.515C155.519 229.519 156.154 229.677 156.628 229.989C157.107 230.3 157.428 230.76 157.591 231.37C157.798 232.151 157.612 232.921 157.032 233.681C156.451 234.435 155.474 234.994 154.103 235.358C151.711 235.993 150 235.447 148.969 233.72L151.277 232.632C151.928 233.51 152.703 233.83 153.603 233.591C154.1 233.459 154.462 233.225 154.69 232.888C154.921 232.544 154.991 232.195 154.897 231.843C154.793 231.453 154.555 231.189 154.182 231.053C153.814 230.908 153.378 230.903 152.874 231.036L152.421 231.157Z" fill="#2F69C2"/>
<path d="M153.857 224.54L156.615 223.581L161.376 229.722L161.245 221.971L163.93 221.038L163.748 231.668L163.723 233.589C163.694 234.24 163.628 234.753 163.524 235.127C163.425 235.498 163.273 235.824 163.067 236.102C162.869 236.385 162.591 236.647 162.234 236.888C161.883 237.127 161.461 237.332 160.969 237.503C160.471 237.677 159.964 237.794 159.448 237.857L158.512 235.907C158.945 235.846 159.325 235.759 159.651 235.646C160.254 235.436 160.638 235.103 160.803 234.646C160.97 234.195 161.035 233.669 160.999 233.068L153.857 224.54Z" fill="#2F69C2"/>
<path d="M162.794 221.416L165.883 219.998L171.241 225.489L170.586 217.838L173.666 216.424L177.993 225.85L175.872 226.823L173.024 220.62L173.573 227.879L171.443 228.857L166.403 223.659L169.251 229.863L167.121 230.841L162.794 221.416Z" fill="#2F69C2"/>
<path d="M176.799 218.258L174.42 219.121C174.159 218.113 174.202 217.229 174.551 216.469C174.9 215.709 175.658 214.991 176.823 214.314C177.881 213.699 178.743 213.367 179.408 213.32C180.07 213.267 180.617 213.374 181.051 213.641C181.488 213.899 182.005 214.544 182.604 215.574L184.188 218.358C184.646 219.146 185.021 219.708 185.313 220.042C185.608 220.368 185.984 220.684 186.44 220.991L184.093 222.355C183.94 222.233 183.728 222.044 183.458 221.787C183.337 221.669 183.255 221.592 183.212 221.557C183.035 222.186 182.774 222.734 182.426 223.199C182.079 223.664 181.644 224.049 181.121 224.353C180.197 224.89 179.323 225.063 178.497 224.873C177.677 224.679 177.044 224.199 176.599 223.434C176.305 222.927 176.164 222.407 176.177 221.872C176.187 221.332 176.348 220.831 176.661 220.371C176.975 219.902 177.498 219.35 178.228 218.715C179.216 217.862 179.872 217.222 180.195 216.793L180.057 216.557C179.792 216.101 179.492 215.842 179.155 215.782C178.816 215.716 178.334 215.864 177.709 216.227C177.287 216.472 177.006 216.748 176.868 217.054C176.726 217.355 176.704 217.756 176.799 218.258ZM181.093 218.338C180.848 218.616 180.437 219.017 179.86 219.54C179.283 220.064 178.933 220.452 178.808 220.705C178.626 221.104 178.633 221.473 178.83 221.81C179.023 222.142 179.313 222.358 179.702 222.456C180.09 222.554 180.476 222.492 180.858 222.269C181.286 222.021 181.612 221.643 181.837 221.136C182 220.755 182.037 220.384 181.947 220.022C181.891 219.783 181.698 219.379 181.367 218.811L181.093 218.338Z" fill="#2F69C2"/>
<path d="M52.6223 106.096L53.4504 104.707C54.233 105.133 54.7652 105.663 55.0471 106.296C55.3263 106.924 55.3693 107.649 55.1762 108.472C54.9372 109.49 54.394 110.245 53.5465 110.738C52.6954 111.229 51.6668 111.334 50.4607 111.051C49.1848 110.751 48.2721 110.189 47.7226 109.365C47.1696 108.54 47.0191 107.591 47.2712 106.517C47.4913 105.579 47.9472 104.883 48.6389 104.427C49.0484 104.156 49.5804 104.005 50.2349 103.974L50.2413 105.592C49.8226 105.59 49.4643 105.706 49.1663 105.941C48.8691 106.173 48.6722 106.495 48.5757 106.906C48.4423 107.474 48.5378 107.984 48.8622 108.435C49.1874 108.883 49.8067 109.214 50.72 109.429C51.6891 109.656 52.4202 109.644 52.9134 109.392C53.4066 109.14 53.7186 108.735 53.8496 108.177C53.9461 107.766 53.8984 107.381 53.7066 107.024C53.5147 106.666 53.1532 106.357 52.6223 106.096Z" fill="#2F69C2"/>
<path d="M58.3266 93.458L59.1802 92.1944C59.6017 92.5991 59.8575 93.0522 59.9476 93.5537C60.036 94.0505 59.9501 94.5839 59.6902 95.1541C59.2787 96.0566 58.6793 96.5901 57.8921 96.7545C57.2637 96.8812 56.5894 96.7804 55.8694 96.4521C55.0093 96.06 54.439 95.5284 54.1585 94.8575C53.8748 94.185 53.8897 93.5051 54.2031 92.8176C54.5552 92.0455 55.0887 91.5528 55.8037 91.3397C56.5155 91.1251 57.3931 91.2674 58.4366 91.7668L56.8679 95.2073C57.2796 95.3832 57.6478 95.4173 57.9724 95.3095C58.2938 95.2002 58.5265 94.9875 58.6706 94.6715C58.7686 94.4565 58.7924 94.2489 58.742 94.0488C58.6915 93.8487 58.5531 93.6518 58.3266 93.458ZM56.9743 92.747C56.5724 92.5756 56.2242 92.5408 55.9298 92.6427C55.6322 92.7431 55.4195 92.9334 55.2917 93.2136C55.1551 93.5134 55.1513 93.8107 55.2805 94.1057C55.4096 94.4008 55.6623 94.632 56.0385 94.7996L56.9743 92.747Z" fill="#2F69C2"/>
<path d="M60.1517 82.2548L60.9652 81.1066L61.6489 81.5911C61.5207 81.2764 61.4737 80.9403 61.5077 80.5826C61.5417 80.2249 61.6685 79.8912 61.8879 79.5815C62.2709 79.041 62.8077 78.7324 63.4984 78.6557C64.1891 78.579 64.9128 78.8087 65.6695 79.3449C66.4467 79.8955 66.9169 80.514 67.0802 81.2002C67.2405 81.8843 67.1292 82.4966 66.7462 83.0371C66.564 83.2942 66.3473 83.4917 66.096 83.6296C65.8468 83.7646 65.5162 83.8595 65.1043 83.9144L67.4489 85.5757L66.5764 86.8072L60.1517 82.2548ZM63.2631 82.6295C63.7861 83.0001 64.2467 83.1707 64.6449 83.1413C65.0403 83.1098 65.3435 82.945 65.5547 82.647C65.7575 82.3607 65.8123 82.0419 65.719 81.6905C65.6227 81.337 65.3131 80.975 64.7902 80.6045C64.3022 80.2588 63.8706 80.0999 63.4953 80.128C63.1199 80.1561 62.8297 80.3147 62.6248 80.604C62.4116 80.9049 62.3514 81.2375 62.4444 81.6018C62.5344 81.964 62.8073 82.3066 63.2631 82.6295Z" fill="#2F69C2"/>
<path d="M69.5505 70.6172L70.6005 69.6169L73.0715 72.2108L72.2805 68.0165L73.3539 66.994L77.2883 71.1241L76.2383 72.1243L73.7228 69.4837L74.5349 73.747L73.4849 74.7472L69.5505 70.6172Z" fill="#2F69C2"/>
<path d="M80.9673 61.0117L82.228 60.1917L83.4989 62.1458C83.6934 61.9851 83.8 61.8239 83.8188 61.6623C83.8375 61.5006 83.7932 61.2026 83.6859 60.7684C83.5415 60.1917 83.5224 59.7748 83.6286 59.5178C83.7348 59.2608 83.944 59.0308 84.2561 58.8277C84.3522 58.7653 84.5237 58.6644 84.7706 58.5252L85.3198 59.3597C84.9866 59.5764 84.7939 59.7466 84.7419 59.8701C84.6918 59.9967 84.7191 60.2587 84.8238 60.6562C84.9638 61.1931 84.9288 61.6024 84.719 61.884C85.1905 61.7354 85.7537 61.8625 86.4086 62.2652C86.4431 62.2855 86.4801 62.3062 86.5196 62.3276L88.0845 63.187L86.7248 64.0714L85.1954 63.0991C84.8847 62.9039 84.656 62.7985 84.5092 62.783C84.3634 62.7624 84.1975 62.8127 84.0114 62.9337L85.338 64.9734L84.0773 65.7933L80.9673 61.0117Z" fill="#2F69C2"/>
<path d="M112.154 54.1561L110.471 54.557L109.388 52.9764L106.326 53.7058L106.108 55.5963L104.468 55.9872L105.626 47.6168L107.262 47.2271L112.154 54.1561ZM108.584 51.8041L106.852 49.2132L106.494 52.302L108.584 51.8041Z" fill="#2F69C2"/>
<path d="M119.169 47.5276L120.774 47.4687L122.286 51.4658L123.468 47.3699L125.03 47.3126L123.219 52.872L122.896 53.8782C122.775 54.2158 122.658 54.4745 122.542 54.6543C122.431 54.834 122.298 54.9804 122.145 55.0935C121.995 55.2101 121.807 55.303 121.58 55.3722C121.357 55.4413 121.102 55.4811 120.816 55.4916C120.526 55.5022 120.24 55.4823 119.959 55.4317L119.781 54.2557C120.019 54.2936 120.233 54.3091 120.423 54.3021C120.773 54.2892 121.029 54.176 121.189 53.9622C121.35 53.7521 121.469 53.4862 121.547 53.1644L119.169 47.5276Z" fill="#2F69C2"/>
<path d="M138.797 46.2089L139.811 46.3648C139.71 46.8094 139.539 47.1327 139.298 47.3347C139.061 47.5337 138.542 47.5718 137.743 47.4488C137.647 47.4341 137.552 47.4177 137.457 47.3994L137.266 47.3701C136.791 47.2971 136.397 47.2909 136.084 47.3514C135.771 47.4083 135.496 47.5725 135.258 47.844C135.024 48.116 134.852 48.5859 134.743 49.2537C135.026 48.8733 135.356 48.6072 135.735 48.4552C136.117 48.3038 136.548 48.2651 137.03 48.3391C137.769 48.4528 138.351 48.8376 138.776 49.4933C139.201 50.1456 139.355 50.8504 139.239 51.6078C139.117 52.397 138.743 53.0331 138.114 53.5161C137.489 53.9997 136.741 54.1746 135.871 54.0407C135.272 53.9488 134.769 53.7246 134.36 53.3683C133.951 53.012 133.687 52.5711 133.569 52.0457C133.451 51.5168 133.48 50.6772 133.657 49.527C133.865 48.175 134.262 47.2416 134.848 46.7267C135.438 46.2124 136.353 46.0505 137.591 46.2409L138.345 46.3568C138.554 46.3889 138.705 46.3396 138.797 46.2089ZM134.995 50.9336C134.916 51.4468 134.981 51.8734 135.19 52.2134C135.402 52.5504 135.694 52.7475 136.066 52.8046C136.466 52.8661 136.817 52.7625 137.119 52.4937C137.425 52.222 137.616 51.8419 137.691 51.3535C137.768 50.8545 137.699 50.4327 137.484 50.0881C137.272 49.7404 136.976 49.5372 136.594 49.4785C136.222 49.4213 135.882 49.5231 135.574 49.7836C135.266 50.0442 135.073 50.4275 134.995 50.9336Z" fill="#2F69C2"/>
<path d="M149.349 53.1051L148.142 52.4135C148.471 51.9455 148.858 51.6497 149.301 51.5259C149.744 51.4022 150.314 51.4645 151.013 51.7128C151.647 51.9382 152.093 52.1821 152.349 52.4442C152.607 52.703 152.756 52.971 152.798 53.2482C152.845 53.5232 152.759 53.9694 152.539 54.5868L151.934 56.2414C151.766 56.7137 151.664 57.0707 151.627 57.3124C151.595 57.5518 151.596 57.822 151.63 58.1227L150.223 57.6226C150.22 57.5149 150.224 57.3587 150.236 57.154C150.242 57.0612 150.245 56.9996 150.244 56.969C149.918 57.1188 149.595 57.2036 149.276 57.2233C148.958 57.243 148.641 57.1971 148.328 57.0856C147.774 56.8889 147.391 56.5834 147.177 56.1692C146.967 55.7562 146.943 55.3203 147.106 54.8614C147.214 54.5578 147.382 54.3136 147.612 54.129C147.842 53.9411 148.109 53.8308 148.413 53.7984C148.722 53.7637 149.139 53.7867 149.665 53.8674C150.375 53.9788 150.876 54.0261 151.171 54.0093L151.222 53.8676C151.319 53.5943 151.32 53.3763 151.226 53.2136C151.133 53.0476 150.899 52.898 150.525 52.7649C150.272 52.6749 150.056 52.6553 149.879 52.7062C149.702 52.7537 149.526 52.8866 149.349 53.1051ZM150.842 54.9354C150.638 54.9314 150.324 54.9014 149.899 54.8454C149.474 54.7894 149.187 54.7803 149.037 54.8181C148.804 54.8837 148.652 55.0178 148.58 55.2202C148.51 55.4193 148.523 55.6177 148.619 55.8156C148.716 56.0134 148.88 56.1531 149.109 56.2347C149.365 56.3258 149.64 56.3284 149.933 56.2425C150.15 56.1755 150.319 56.0588 150.439 55.8924C150.519 55.7841 150.62 55.5596 150.741 55.2188L150.842 54.9354Z" fill="#2F69C2"/>
<path d="M161.945 56.6716L163.249 57.4211L162.087 59.4421C162.318 59.5421 162.51 59.5637 162.663 59.5068C162.815 59.4499 163.061 59.2749 163.398 58.9817C163.846 58.5907 164.209 58.384 164.486 58.3616C164.763 58.3392 165.063 58.4208 165.386 58.6063C165.485 58.6634 165.653 58.7702 165.89 58.9267L165.396 59.7955C165.052 59.5975 164.813 59.5034 164.679 59.5132C164.543 59.5262 164.323 59.6698 164.016 59.9439C163.602 60.3129 163.221 60.468 162.875 60.4094C163.222 60.7616 163.365 61.3209 163.305 62.0873C163.302 62.1273 163.301 62.1697 163.3 62.2145L163.247 63.9992L161.84 63.1908L162.01 61.3865C162.042 61.0211 162.032 60.7694 161.979 60.6316C161.931 60.4925 161.811 60.3676 161.618 60.257L160.406 62.3664L159.102 61.617L161.945 56.6716Z" fill="#2F69C2"/>
<path d="M173.374 64.2378L174.477 65.1791L172.152 67.9045L176.242 66.6851L177.37 67.6472L173.668 71.9866L172.564 71.0454L174.931 68.2709L170.775 69.5185L169.671 68.5772L173.374 64.2378Z" fill="#2F69C2"/>
<path d="M184.154 74.6638L185.029 75.7655L184.373 76.2868C184.711 76.2516 185.047 76.3002 185.381 76.4327C185.715 76.5652 186 76.7801 186.236 77.0773C186.648 77.5959 186.795 78.1975 186.676 78.8822C186.556 79.5668 186.134 80.1976 185.408 80.7746C184.662 81.3671 183.937 81.646 183.232 81.6112C182.531 81.5742 181.974 81.2964 181.562 80.7778C181.366 80.5311 181.237 80.2678 181.174 79.988C181.114 79.711 181.115 79.3671 181.178 78.9563L178.928 80.7439L177.989 79.5622L184.154 74.6638ZM182.925 77.5469C182.424 77.9457 182.131 78.3404 182.048 78.731C181.968 79.1194 182.042 79.4565 182.269 79.7425C182.487 80.0172 182.778 80.1588 183.142 80.1673C183.508 80.1736 183.942 79.9773 184.444 79.5786C184.912 79.2066 185.185 78.8364 185.263 78.4682C185.341 78.0999 185.269 77.777 185.049 77.4995C184.819 77.2107 184.517 77.0601 184.141 77.0477C183.768 77.033 183.363 77.1994 182.925 77.5469Z" fill="#2F69C2"/>
<path d="M190.103 87.9399C190.548 87.709 191.036 87.5952 191.566 87.5985C192.096 87.6018 192.575 87.7468 193.002 88.0335C193.431 88.3234 193.774 88.7163 194.031 89.2121C194.428 89.9781 194.504 90.7353 194.259 91.4837C194.017 92.2304 193.517 92.8008 192.757 93.1949C191.991 93.5923 191.227 93.6742 190.464 93.4405C189.706 93.2084 189.133 92.7173 188.744 91.9672C188.503 91.5031 188.378 91.0053 188.368 90.4737C188.36 89.9454 188.501 89.4668 188.791 89.0381C189.084 88.6077 189.522 88.2416 190.103 87.9399ZM190.744 89.3501C190.242 89.6106 189.919 89.9293 189.776 90.3062C189.633 90.6831 189.652 91.0464 189.833 91.396C190.014 91.7456 190.3 91.9688 190.689 92.0655C191.079 92.1653 191.529 92.0834 192.037 91.8195C192.533 91.5623 192.853 91.2452 192.996 90.8683C193.141 90.4946 193.123 90.1329 192.941 89.7833C192.76 89.4337 192.474 89.2089 192.083 89.1091C191.693 89.0092 191.246 89.0895 190.744 89.3501Z" fill="#2F69C2"/>
<path d="M198.76 100.666L199.69 103.835C199.88 104.485 199.904 105.006 199.762 105.398C199.62 105.791 199.31 106.057 198.832 106.197C198.526 106.287 198.234 106.276 197.955 106.164C197.677 106.055 197.46 105.878 197.306 105.632C197.324 106.037 197.233 106.37 197.034 106.63C196.834 106.89 196.583 107.064 196.28 107.153C195.854 107.278 195.461 107.223 195.102 106.989C194.745 106.754 194.477 106.331 194.298 105.719L193.286 102.271L198.76 100.666ZM196.915 102.791L197.189 103.724C197.321 104.174 197.473 104.482 197.644 104.648C197.817 104.818 198.026 104.867 198.27 104.795C198.5 104.727 198.635 104.585 198.676 104.368C198.721 104.153 198.674 103.807 198.534 103.329L198.26 102.396L196.915 102.791ZM194.642 103.458L194.978 104.602C195.099 105.014 195.237 105.3 195.392 105.46C195.547 105.62 195.753 105.662 196.011 105.586C196.279 105.508 196.431 105.346 196.467 105.1C196.507 104.853 196.435 104.417 196.251 103.792L196.034 103.05L194.642 103.458Z" fill="#2F69C2"/>
</svg>
